<svg width="25" height="25" viewBox="0 0 25 25" fill="none" xmlns="http://www.w3.org/2000/svg">
<rect width="25" height="25" rx="12.5" fill="#73A8FF" fill-opacity="0.4"/>
<g clip-path="url(#clip0_602_49268)">
<path d="M18.3499 11.85H13.15V6.64996C13.15 6.29125 12.8588 6 12.5 6C12.1412 6 11.85 6.29125 11.85 6.64996V11.85H6.64996C6.29125 11.85 6 12.1412 6 12.5C6 12.8588 6.29125 13.15 6.64996 13.15H11.85V18.3499C11.85 18.7088 12.1412 19 12.5 19C12.8588 19 13.15 18.7088 13.15 18.3499V13.15H18.3499C18.7088 13.15 19 12.8588 19 12.5C19 12.1412 18.7088 11.85 18.3499 11.85Z" fill="url(#paint0_linear_602_49268)"/>
</g>
<defs>
<linearGradient id="paint0_linear_602_49268" x1="6" y1="-8.41308" x2="27.1331" y2="-1.41379" gradientUnits="userSpaceOnUse">
<stop stop-color="#243057"/>
<stop offset="1" stop-color="#374255"/>
</linearGradient>
<clipPath id="clip0_602_49268">
<rect width="13" height="13" fill="white" transform="translate(6 6)"/>
</clipPath>
</defs>
</svg>
