<svg width="38" height="38" viewBox="0 0 38 38" fill="none" xmlns="http://www.w3.org/2000/svg">
<rect x="0.0380859" width="37.0384" height="37.0384" rx="18.5192" fill="white"/>
<path d="M11.331 24.3313C10.9405 24.7219 10.9405 25.355 11.331 25.7456C11.7215 26.1361 12.3547 26.1361 12.7452 25.7456L11.331 24.3313ZM26.0765 12C26.0765 11.4478 25.6288 11 25.0765 11L16.0765 11C15.5242 11 15.0765 11.4478 15.0765 12C15.0765 12.5523 15.5242 13 16.0765 13L24.0765 13L24.0765 21C24.0765 21.5523 24.5242 22 25.0765 22C25.6288 22 26.0765 21.5523 26.0765 21L26.0765 12ZM12.7452 25.7456L25.7836 12.7072L24.3694 11.2929L11.331 24.3313L12.7452 25.7456Z" fill="#232C42"/>
</svg>
