<svg width="38" height="38" viewBox="0 0 38 38" fill="none" xmlns="http://www.w3.org/2000/svg">
<rect y="0.483398" width="37.0384" height="37.0384" rx="18.5192" fill="url(#paint0_linear_110_3532)"/>
<path d="M11.2929 24.8146C10.9024 25.2051 10.9024 25.8383 11.2929 26.2288C11.6834 26.6194 12.3166 26.6194 12.7071 26.2288L11.2929 24.8146ZM26.0384 12.4833C26.0384 11.931 25.5907 11.4833 25.0384 11.4833L16.0384 11.4833C15.4861 11.4833 15.0384 11.931 15.0384 12.4833C15.0384 13.0356 15.4861 13.4833 16.0384 13.4833L24.0384 13.4833L24.0384 21.4833C24.0384 22.0356 24.4861 22.4833 25.0384 22.4833C25.5907 22.4833 26.0384 22.0356 26.0384 21.4833L26.0384 12.4833ZM12.7071 26.2288L25.7455 13.1904L24.3313 11.7762L11.2929 24.8146L12.7071 26.2288Z" fill="white"/>
<defs>
<linearGradient id="paint0_linear_110_3532" x1="18.5192" y1="0.483398" x2="18.5192" y2="37.5218" gradientUnits="userSpaceOnUse">
<stop stop-color="#73A8FF"/>
<stop offset="0.365" stop-color="#6FA7FF"/>
<stop offset="1" stop-color="#3C6CEC"/>
</linearGradient>
</defs>
</svg>
