<svg width="39" height="38" viewBox="0 0 39 38" fill="none" xmlns="http://www.w3.org/2000/svg">
<rect x="0.980469" y="0.480469" width="37.0384" height="37.0384" rx="18.5192" fill="#4F5D80"/>
<path d="M12.2734 24.8114C11.8828 25.202 11.8828 25.8351 12.2734 26.2257C12.6639 26.6162 13.2971 26.6162 13.6876 26.2257L12.2734 24.8114ZM27.0189 12.4801C27.0189 11.9279 26.5712 11.4801 26.0189 11.4801L17.0189 11.4802C16.4666 11.4802 16.0189 11.9279 16.0189 12.4802C16.0189 13.0324 16.4666 13.4801 17.0189 13.4802L25.0189 13.4801L25.0189 21.4801C25.0189 22.0324 25.4666 22.4801 26.0189 22.4801C26.5712 22.4802 27.0189 22.0324 27.0189 21.4802L27.0189 12.4801ZM13.6876 26.2257L26.726 13.1873L25.3118 11.773L12.2734 24.8114L13.6876 26.2257Z" fill="white"/>
</svg>
