<svg width="30" height="22" viewBox="0 0 30 22" fill="none" xmlns="http://www.w3.org/2000/svg">
<path d="M28.75 12.0834H1.25C0.56 12.0834 0 11.5234 0 10.8334C0 10.1434 0.56 9.58344 1.25 9.58344H28.75C29.44 9.58344 30 10.1434 30 10.8334C30 11.5234 29.44 12.0834 28.75 12.0834ZM28.75 2.5H1.25C0.56 2.5 0 1.94 0 1.25C0 0.56 0.56 0 1.25 0H28.75C29.44 0 30 0.56 30 1.25C30 1.94 29.44 2.5 28.75 2.5ZM28.75 21.6666H1.25C0.56 21.6666 0 21.1066 0 20.4166C0 19.7266 0.56 19.1666 1.25 19.1666H28.75C29.44 19.1666 30 19.7266 30 20.4166C30 21.1066 29.44 21.6666 28.75 21.6666Z" fill="#232C42"/>
</svg>
