<svg width="25" height="26" viewBox="0 0 25 26" fill="none" xmlns="http://www.w3.org/2000/svg">
<rect y="0.5" width="25" height="25" rx="12.5" fill="url(#paint0_linear_1_77)"/>
<path fill-rule="evenodd" clip-rule="evenodd" d="M17.781 17.5552C17.7013 17.6347 17.6052 17.7362 17.5033 17.8437C17.2491 18.1135 16.9314 18.449 16.7323 18.585C15.6849 19.3007 14.2836 18.9583 13.2924 18.5453C11.9848 18.0005 10.5613 16.9962 9.28305 15.7179C8.00363 14.4394 6.99951 13.0154 6.4547 11.7085C6.0422 10.7171 5.699 9.31555 6.41486 8.26789C6.5508 8.06867 6.88701 7.75153 7.1565 7.49679C7.26431 7.39521 7.36509 7.29923 7.44478 7.2198C7.58626 7.07903 7.77772 7 7.9773 7C8.17688 7 8.36834 7.07903 8.50981 7.2198L10.437 9.14647C10.5777 9.28794 10.6567 9.47935 10.6567 9.67887C10.6567 9.87839 10.5777 10.0698 10.437 10.2113L9.91204 10.7352C9.73671 10.9093 9.62226 11.1353 9.58574 11.3796C9.54921 11.624 9.59256 11.8736 9.70933 12.0913C10.4314 13.4542 11.5462 14.5688 12.9093 15.2907C13.1269 15.4074 13.3765 15.4507 13.6208 15.4141C13.865 15.3775 14.091 15.263 14.2649 15.0876L14.7886 14.5637C14.9301 14.4229 15.1215 14.3439 15.3211 14.3439C15.5207 14.3439 15.7121 14.4229 15.8536 14.5637L17.781 16.4907C17.9217 16.6321 18.0007 16.8235 18.0007 17.023C18.0007 17.2224 17.9217 17.4138 17.781 17.5552Z" fill="white"/>
<defs>
<linearGradient id="paint0_linear_1_77" x1="12.5" y1="0.5" x2="12.5" y2="25.5" gradientUnits="userSpaceOnUse">
<stop stop-color="#73A8FF"/>
<stop offset="0.365" stop-color="#6FA7FF"/>
<stop offset="1" stop-color="#3C6CEC"/>
</linearGradient>
</defs>
</svg>
