<svg width="18" height="16" viewBox="0 0 18 16" fill="none" xmlns="http://www.w3.org/2000/svg">
<path d="M7.75548 0.976257L0.768852 13.0766C0.642649 13.2951 0.576195 13.543 0.576172 13.7953C0.576149 14.0477 0.642556 14.2956 0.768719 14.5141C0.894882 14.7326 1.07635 14.9141 1.29489 15.0403C1.51343 15.1664 1.76132 15.2328 2.01366 15.2328H15.9858C16.2381 15.2328 16.486 15.1664 16.7046 15.0403C16.9231 14.9141 17.1046 14.7326 17.2307 14.5141C17.3569 14.2956 17.4233 14.0477 17.4233 13.7953C17.4233 13.543 17.3568 13.2951 17.2306 13.0766L10.2447 0.976257C10.1186 0.757784 9.93716 0.576364 9.71868 0.450229C9.50021 0.324095 9.25238 0.25769 9.0001 0.25769C8.74783 0.25769 8.5 0.324095 8.28152 0.450229C8.06305 0.576364 7.88162 0.757784 7.75548 0.976257Z" fill="#EE404C"/>
<path d="M9.09039 4.70789H8.90814C8.45944 4.70789 8.0957 5.07163 8.0957 5.52032V9.40364C8.0957 9.85233 8.45944 10.2161 8.90814 10.2161H9.09039C9.53909 10.2161 9.90283 9.85233 9.90283 9.40364V5.52032C9.90283 5.07163 9.53909 4.70789 9.09039 4.70789Z" fill="#FFF7ED"/>
<path d="M8.99927 13.2963C9.49829 13.2963 9.90283 12.8917 9.90283 12.3927C9.90283 11.8937 9.49829 11.4891 8.99927 11.4891C8.50024 11.4891 8.0957 11.8937 8.0957 12.3927C8.0957 12.8917 8.50024 13.2963 8.99927 13.2963Z" fill="#FFF7ED"/>
</svg>
