<svg width="15" height="15" viewBox="0 0 15 15" fill="none" xmlns="http://www.w3.org/2000/svg">
<path d="M5.625 0H1.40625C0.630937 0 0 0.630937 0 1.40625V5.625C0 6.40031 0.630937 7.03125 1.40625 7.03125H5.625C6.40031 7.03125 7.03125 6.40031 7.03125 5.625V1.40625C7.03125 0.630937 6.40031 0 5.625 0ZM13.5938 0H9.375C8.59969 0 7.96875 0.630937 7.96875 1.40625V5.625C7.96875 6.40031 8.59969 7.03125 9.375 7.03125H13.5938C14.3691 7.03125 15 6.40031 15 5.625V1.40625C15 0.630937 14.3691 0 13.5938 0ZM13.5938 7.96875H9.375C8.59969 7.96875 7.96875 8.59969 7.96875 9.375V13.5938C7.96875 14.3691 8.59969 15 9.375 15H13.5938C14.3691 15 15 14.3691 15 13.5938V9.375C15 8.59969 14.3691 7.96875 13.5938 7.96875ZM5.625 7.96875H1.40625C0.630937 7.96875 0 8.59969 0 9.375V13.5938C0 14.3691 0.630937 15 1.40625 15H5.625C6.40031 15 7.03125 14.3691 7.03125 13.5938V9.375C7.03125 8.59969 6.40031 7.96875 5.625 7.96875Z" fill="#4F5D80"/>
</svg>
