<svg width="53" height="53" viewBox="0 0 53 53" fill="none" xmlns="http://www.w3.org/2000/svg">
<circle cx="25.8375" cy="25.8375" r="12.5875" fill="#232C42"/>
<path d="M48.3452 21.9247L45.9337 19.5176C45.6397 19.2246 45.4066 18.8762 45.2478 18.4927C45.089 18.1091 45.0076 17.6979 45.0084 17.2828V14.4628C45.0067 12.747 44.3245 11.102 43.1115 9.88864C41.8985 8.67523 40.2537 7.99247 38.538 7.99014H35.718C34.8814 7.98789 34.0793 7.65627 33.4853 7.06705L31.0761 4.65555C29.8614 3.44404 28.2159 2.76367 26.5004 2.76367C24.7849 2.76367 23.1393 3.44404 21.9247 4.65555L19.5176 7.06705C18.923 7.65681 18.1203 7.98914 17.2828 7.99234H14.4606C12.7448 7.99468 11.1001 8.67744 9.88708 9.89085C8.67408 11.1043 7.99189 12.7492 7.99014 14.465V17.2828C7.99123 17.6978 7.91023 18.1089 7.75181 18.4924C7.59339 18.876 7.36067 19.2244 7.06705 19.5176L4.65555 21.9247C3.44404 23.1393 2.76367 24.7849 2.76367 26.5004C2.76367 28.2159 3.44404 29.8614 4.65555 31.0761L7.06705 33.4831C7.36107 33.7762 7.59419 34.1245 7.753 34.5081C7.9118 34.8917 7.99314 35.3028 7.99234 35.718V38.538C7.9941 40.2537 8.67629 41.8987 9.88929 43.1121C11.1023 44.3255 12.747 45.0083 14.4628 45.0106H17.2828C18.1197 45.0135 18.9219 45.3459 19.5154 45.9359L21.9247 48.3452C23.1391 49.5573 24.7847 50.238 26.5004 50.238C28.2161 50.238 29.8617 49.5573 31.0761 48.3452L33.4831 45.9359C34.0778 45.3462 34.8805 45.0138 35.718 45.0106H38.5402C40.2559 45.0083 41.9007 44.3255 43.1137 43.1121C44.3267 41.8987 45.0089 40.2537 45.0106 38.538V35.718C45.0098 35.3028 45.0912 34.8917 45.25 34.5081C45.4088 34.1245 45.6419 33.7762 45.9359 33.4831L48.3452 31.0761C49.5567 29.8614 50.2371 28.2159 50.2371 26.5004C50.2371 24.7849 49.5567 23.1393 48.3452 21.9247ZM34.2958 23.2497L25.4625 32.0831C25.309 32.2372 25.1266 32.3594 24.9257 32.4429C24.7249 32.5263 24.5095 32.5693 24.2921 32.5693C24.0746 32.5693 23.8592 32.5263 23.6584 32.4429C23.4575 32.3594 23.2751 32.2372 23.1216 32.0831L18.705 27.6664C18.4124 27.3524 18.2531 26.9371 18.2607 26.5081C18.2683 26.079 18.4421 25.6696 18.7456 25.3661C19.049 25.0627 19.4584 24.8889 19.8875 24.8813C20.3166 24.8737 20.7318 25.033 21.0458 25.3256L24.2921 28.574L31.955 20.9133C32.2689 20.6207 32.6842 20.4615 33.1133 20.469C33.5424 20.4766 33.9518 20.6504 34.2552 20.9539C34.5587 21.2573 34.7325 21.6667 34.7401 22.0958C34.7476 22.5249 34.5884 22.9402 34.2958 23.2541V23.2497Z" fill="url(#paint0_linear_110_1267)"/>
<defs>
<linearGradient id="paint0_linear_110_1267" x1="26.5004" y1="2.76367" x2="26.5004" y2="50.238" gradientUnits="userSpaceOnUse">
<stop stop-color="#45F295"/>
<stop offset="1" stop-color="#45F295" stop-opacity="0.98"/>
</linearGradient>
</defs>
</svg>
