<svg width="40" height="40" viewBox="0 0 40 40" fill="none" xmlns="http://www.w3.org/2000/svg">
<g clip-path="url(#clip0_110_1245)">
<path d="M20 0C8.97156 0 0 8.97156 0 20C0 31.0284 8.97156 40 20 40C31.0284 40 40 31.0284 40 20C40 8.97156 31.0284 0 20 0Z" fill="url(#paint0_linear_110_1245)"/>
<path d="M27.3654 25.0085C28.017 25.6604 28.017 26.7136 27.3654 27.3654C27.2108 27.5204 27.0271 27.6433 26.8248 27.7271C26.6225 27.8109 26.4057 27.8539 26.1868 27.8537C25.7602 27.8537 25.3336 27.6904 25.0085 27.3654L20.0003 22.3569L14.9921 27.3655C14.8375 27.5204 14.6539 27.6434 14.4516 27.7272C14.2494 27.811 14.0326 27.854 13.8138 27.8537C13.5948 27.854 13.378 27.811 13.1758 27.7272C12.9735 27.6434 12.7898 27.5205 12.6352 27.3655C11.9837 26.7136 11.9837 25.6604 12.6352 25.0085L17.6437 20.0003L12.6352 14.9921C11.9836 14.3402 11.9836 13.287 12.6352 12.6352C13.287 11.9837 14.3402 11.9837 14.9921 12.6352L20.0003 17.6437L25.0085 12.6352C25.6604 11.9836 26.7136 11.9836 27.3654 12.6352C28.017 13.287 28.017 14.3402 27.3654 14.9921L22.3569 20.0003L27.3654 25.0085Z" fill="#FAFAFA"/>
</g>
<defs>
<linearGradient id="paint0_linear_110_1245" x1="20" y1="0" x2="20" y2="40" gradientUnits="userSpaceOnUse">
<stop stop-color="#FF7373"/>
<stop offset="1" stop-color="#EC3C3C"/>
</linearGradient>
<clipPath id="clip0_110_1245">
<rect width="40" height="40" fill="white"/>
</clipPath>
</defs>
</svg>
