<svg width="25" height="25" viewBox="0 0 25 25" fill="none" xmlns="http://www.w3.org/2000/svg">
<rect width="25" height="25" rx="12.5" fill="url(#paint0_linear_110_1604)"/>
<g clip-path="url(#clip0_110_1604)">
<path d="M12.5 6C8.91579 6 6 8.91579 6 12.5C6 16.0842 8.91579 19 12.5 19C16.0842 19 19 16.0842 19 12.5C19 8.91579 16.0842 6 12.5 6ZM15.5913 15.8621C15.5411 15.9126 15.4814 15.9527 15.4157 15.98C15.35 16.0073 15.2795 16.0214 15.2083 16.0214C15.1372 16.0214 15.0667 16.0073 15.001 15.98C14.9352 15.9527 14.8756 15.9126 14.8254 15.8621L12.117 13.1538C12.0666 13.1036 12.0267 13.0439 11.9994 12.9782C11.9722 12.9124 11.9582 12.842 11.9583 12.7708V9.25C11.9583 9.10634 12.0154 8.96857 12.117 8.86698C12.2186 8.7654 12.3563 8.70833 12.5 8.70833C12.6437 8.70833 12.7814 8.7654 12.883 8.86698C12.9846 8.96857 13.0417 9.10634 13.0417 9.25V12.5466L15.5913 15.0962C15.6416 15.1465 15.6816 15.2062 15.7088 15.2719C15.7361 15.3376 15.7501 15.408 15.7501 15.4792C15.7501 15.5503 15.7361 15.6207 15.7088 15.6865C15.6816 15.7522 15.6416 15.8119 15.5913 15.8621Z" fill="white"/>
</g>
<defs>
<linearGradient id="paint0_linear_110_1604" x1="12.5" y1="0" x2="12.5" y2="25" gradientUnits="userSpaceOnUse">
<stop stop-color="#73A8FF"/>
<stop offset="0.365" stop-color="#6FA7FF"/>
<stop offset="1" stop-color="#3C6CEC"/>
</linearGradient>
<clipPath id="clip0_110_1604">
<rect width="13" height="13" fill="white" transform="translate(6 6)"/>
</clipPath>
</defs>
</svg>
