<svg width="25" height="25" viewBox="0 0 25 25" fill="none" xmlns="http://www.w3.org/2000/svg">
<rect width="25" height="25" rx="12.5" fill="url(#paint0_linear_110_1622)"/>
<path fill-rule="evenodd" clip-rule="evenodd" d="M17.781 17.0552C17.7013 17.1347 17.6052 17.2362 17.5033 17.3437C17.2491 17.6135 16.9314 17.949 16.7323 18.085C15.6849 18.8007 14.2836 18.4583 13.2924 18.0453C11.9848 17.5005 10.5613 16.4962 9.28305 15.2179C8.00363 13.9394 6.99951 12.5154 6.4547 11.2085C6.0422 10.2171 5.699 8.81555 6.41486 7.76789C6.5508 7.56867 6.88701 7.25153 7.1565 6.99679C7.26431 6.89521 7.36509 6.79923 7.44478 6.7198C7.58626 6.57903 7.77772 6.5 7.9773 6.5C8.17688 6.5 8.36834 6.57903 8.50981 6.7198L10.437 8.64647C10.5777 8.78794 10.6567 8.97935 10.6567 9.17887C10.6567 9.37839 10.5777 9.5698 10.437 9.71127L9.91204 10.2352C9.73671 10.4093 9.62226 10.6353 9.58574 10.8796C9.54921 11.124 9.59256 11.3736 9.70933 11.5913C10.4314 12.9542 11.5462 14.0688 12.9093 14.7907C13.1269 14.9074 13.3765 14.9507 13.6208 14.9141C13.865 14.8775 14.091 14.763 14.2649 14.5876L14.7886 14.0637C14.9301 13.9229 15.1215 13.8439 15.3211 13.8439C15.5207 13.8439 15.7121 13.9229 15.8536 14.0637L17.781 15.9907C17.9217 16.1321 18.0007 16.3235 18.0007 16.523C18.0007 16.7224 17.9217 16.9138 17.781 17.0552Z" fill="white"/>
<defs>
<linearGradient id="paint0_linear_110_1622" x1="12.5" y1="0" x2="12.5" y2="25" gradientUnits="userSpaceOnUse">
<stop stop-color="#73A8FF"/>
<stop offset="0.365" stop-color="#6FA7FF"/>
<stop offset="1" stop-color="#3C6CEC"/>
</linearGradient>
</defs>
</svg>
