<svg width="25" height="25" viewBox="0 0 25 25" fill="none" xmlns="http://www.w3.org/2000/svg">
<rect width="25" height="25" rx="12.5" fill="url(#paint0_linear_110_1637)"/>
<g clip-path="url(#clip0_110_1637)">
<path d="M11.765 12.423C12.1567 12.6841 12.8439 12.6842 13.2357 12.423L13.2359 12.4229L19.9117 7.97231C19.6927 7.33903 19.0908 6.88281 18.3841 6.88281H6.61651C5.90971 6.88281 5.30786 7.33903 5.08887 7.97231L11.7648 12.4229L11.765 12.423Z" fill="white"/>
<path d="M13.7231 13.1534L13.7229 13.1535C13.3801 13.3821 12.94 13.4964 12.5 13.4964C12.06 13.4964 11.62 13.3821 11.2772 13.1535L11.277 13.1534L5 8.96875V16.5002C5 17.3913 5.72502 18.1163 6.6162 18.1163H18.3839C19.275 18.1163 20 17.3913 20 16.5002V8.96875L13.7231 13.1534Z" fill="white"/>
</g>
<defs>
<linearGradient id="paint0_linear_110_1637" x1="12.5" y1="0" x2="12.5" y2="25" gradientUnits="userSpaceOnUse">
<stop stop-color="#73A8FF"/>
<stop offset="0.365" stop-color="#6FA7FF"/>
<stop offset="1" stop-color="#3C6CEC"/>
</linearGradient>
<clipPath id="clip0_110_1637">
<rect width="15" height="15" fill="white" transform="translate(5 5)"/>
</clipPath>
</defs>
</svg>
