<svg width="18" height="18" viewBox="0 0 18 18" fill="none" xmlns="http://www.w3.org/2000/svg">
<path d="M15.7875 13.375C16.1421 13.3747 16.4821 13.2336 16.7329 12.9829C16.9836 12.7321 17.1247 12.3921 17.125 12.0375V2.2125C17.1247 1.85787 16.9836 1.51787 16.7329 1.26711C16.4821 1.01635 16.1421 0.875331 15.7875 0.875H5.9625C5.60787 0.875331 5.26787 1.01635 5.01711 1.26711C4.76635 1.51787 4.62533 1.85787 4.625 2.2125V3.375H12.0375C12.7233 3.37632 13.3807 3.64936 13.8657 4.13432C14.3506 4.61929 14.6237 5.27666 14.625 5.9625V13.375H15.7875Z" fill="#FFFFFF3B"/>
<path d="M12.0375 4.625H2.2125C1.47382 4.625 0.875 5.22382 0.875 5.9625V15.7875C0.875 16.5262 1.47382 17.125 2.2125 17.125H12.0375C12.7762 17.125 13.375 16.5262 13.375 15.7875V5.9625C13.375 5.22382 12.7762 4.625 12.0375 4.625Z" fill="#FFFFFF3B"/>
</svg>
