<svg width="35" height="35" viewBox="0 0 35 35" fill="none" xmlns="http://www.w3.org/2000/svg">
<g clip-path="url(#clip0_1_892)">
<g clip-path="url(#clip1_1_892)">
<path d="M29.4421 0H5.55789C2.49327 0 0 2.49327 0 5.55789V29.4421C0 32.5067 2.49327 35 5.55789 35H29.4421C32.5067 35 35 32.5067 35 29.4421V5.55789C35 2.49327 32.5067 0 29.4421 0ZM11.9691 16.1653C12.3962 15.7381 13.0888 15.7381 13.5159 16.1653L16.4062 19.0557V8.10059C16.4062 7.49656 16.896 7.00684 17.5 7.00684C18.104 7.00684 18.5938 7.49656 18.5938 8.10059V19.0557L21.4841 16.1653C21.9112 15.7381 22.6038 15.7381 23.0309 16.1653C23.4581 16.5924 23.4581 17.2849 23.0309 17.712L18.2734 22.4696C18.0598 22.6832 17.7799 22.79 17.5 22.79C17.2201 22.79 16.9402 22.6832 16.7266 22.4696L11.9691 17.712C11.5419 17.2849 11.5419 16.5924 11.9691 16.1653ZM26.8994 27.9932H8.10059C7.49656 27.9932 7.00684 27.5034 7.00684 26.8994C7.00684 26.2954 7.49656 25.8057 8.10059 25.8057H26.8994C27.5034 25.8057 27.9932 26.2954 27.9932 26.8994C27.9932 27.5034 27.5034 27.9932 26.8994 27.9932Z" fill="url(#paint0_linear_1_892)"/>
</g>
</g>
<defs>
<linearGradient id="paint0_linear_1_892" x1="17.5" y1="0" x2="17.5" y2="35" gradientUnits="userSpaceOnUse">
<stop stop-color="white"/>
<stop offset="1" stop-color="white" stop-opacity="0.95"/>
</linearGradient>
<clipPath id="clip0_1_892">
<rect width="35" height="35" fill="white"/>
</clipPath>
<clipPath id="clip1_1_892">
<rect width="35" height="35" fill="white"/>
</clipPath>
</defs>
</svg>
