<svg width="15" height="16" viewBox="0 0 15 16" fill="none" xmlns="http://www.w3.org/2000/svg">
<path d="M7.5 0.5C3.3544 0.5 0 3.8547 0 8C0 12.1456 3.3547 15.5 7.5 15.5C11.6456 15.5 15 12.1453 15 8C15 3.8544 11.6453 0.5 7.5 0.5ZM7.5 14.3281C4.00216 14.3281 1.17188 11.4976 1.17188 8C1.17188 4.50216 4.00239 1.67188 7.5 1.67188C10.9978 1.67188 13.8281 4.50239 13.8281 8C13.8281 11.4978 10.9976 14.3281 7.5 14.3281Z" fill="#4F5D80" fill-opacity="0.58"/>
<path d="M7.5 6.7793C7.17639 6.7793 6.91406 7.04162 6.91406 7.36523V11.1385C6.91406 11.4621 7.17639 11.7244 7.5 11.7244C7.82361 11.7244 8.08594 11.4621 8.08594 11.1384V7.36523C8.08594 7.04162 7.82361 6.7793 7.5 6.7793Z" fill="#4F5D80" fill-opacity="0.58"/>
<path d="M7.5 6.06152C7.93687 6.06152 8.29102 5.70737 8.29102 5.27051C8.29102 4.83364 7.93687 4.47949 7.5 4.47949C7.06313 4.47949 6.70898 4.83364 6.70898 5.27051C6.70898 5.70737 7.06313 6.06152 7.5 6.06152Z" fill="#4F5D80" fill-opacity="0.58"/>
</svg>
