<svg width="25" height="25" viewBox="0 0 25 25" fill="none" xmlns="http://www.w3.org/2000/svg">
<g clip-path="url(#clip0_110_1203)">
<path fill-rule="evenodd" clip-rule="evenodd" d="M22.3063 23.9275V7.79307H15.4062C14.9128 7.79307 14.5135 7.39346 14.5135 6.90005V0H3.76787C3.17627 0 2.69531 0.48125 2.69531 1.07285V23.9275C2.69531 24.5191 3.17632 25.0001 3.76787 25.0001H21.2332C21.8247 25.0001 22.3063 24.5191 22.3063 23.9275ZM16.299 6.00732V1.2627L21.0434 6.00732H16.299ZM18.8845 19.1423C18.8845 19.6352 18.4849 20.0354 17.9915 20.0354H7.00952C6.5167 20.0354 6.1165 19.6352 6.1165 19.1423C6.1165 18.649 6.5167 18.2496 7.00952 18.2496H17.9915C18.4849 18.2496 18.8845 18.649 18.8845 19.1423ZM18.8845 13.0484C18.8845 13.5416 18.4849 13.9412 17.9915 13.9412H7.00952C6.5167 13.9412 6.1165 13.5416 6.1165 13.0484C6.1165 12.5553 6.5167 12.1557 7.00952 12.1557H17.9915C18.4849 12.1557 18.8845 12.5553 18.8845 13.0484Z" fill="white"/>
</g>
<defs>
<clipPath id="clip0_110_1203">
<rect width="25" height="25" fill="white"/>
</clipPath>
</defs>
</svg>
