<svg width="27" height="27" viewBox="0 0 27 27" fill="none" xmlns="http://www.w3.org/2000/svg">
<g clip-path="url(#clip0_110_1405)">
<path d="M13.4997 0.84375C6.52185 0.84375 0.843415 6.52219 0.843415 13.5C0.843415 15.9047 1.51842 18.2334 2.80092 20.2584L0.902478 25.0003C0.775915 25.3125 0.851853 25.6669 1.0881 25.9116C1.20546 26.0278 1.35418 26.1073 1.51604 26.1403C1.67791 26.1732 1.84587 26.1583 1.99935 26.0972L6.74123 24.1987C8.76623 25.4813 11.095 26.1562 13.4997 26.1562C20.4775 26.1562 26.1559 20.4778 26.1559 13.5C26.1559 6.52219 20.4775 0.84375 13.4997 0.84375ZM8.43717 17.7188H6.74967V10.125H8.43717V17.7188ZM20.2075 12.1922L19.3469 16.4953C19.119 17.6344 17.9884 18.5625 16.824 18.5625H12.1834C11.2553 18.5625 10.4959 17.8031 10.4959 16.875V10.125C10.4959 10.125 11.9303 9.28125 12.774 7.59375C13.1115 6.91031 13.1959 5.90625 14.0397 5.90625C14.9087 5.90625 15.9803 7.59375 14.2928 10.125H18.5115C19.6759 10.125 20.4353 11.0531 20.2075 12.1922Z" fill="#335EC3"/>
</g>
<defs>
<clipPath id="clip0_110_1405">
<rect width="27" height="27" fill="white"/>
</clipPath>
</defs>
</svg>
