<svg width="33" height="33" viewBox="0 0 33 33" fill="none" xmlns="http://www.w3.org/2000/svg">
<path fill-rule="evenodd" clip-rule="evenodd" d="M6.29134 0.458984C3.09905 0.458984 0.458008 3.10003 0.458008 6.29232V26.709C0.458008 29.9013 3.09905 32.5423 6.29134 32.5423H26.708C29.9003 32.5423 32.5413 29.9013 32.5413 26.709V6.29232C32.5413 3.10003 29.9003 0.458984 26.708 0.458984H6.29134ZM11.7266 16.5007C11.7266 16.1139 11.8802 15.7429 12.1537 15.4695C12.4272 15.196 12.7981 15.0423 13.1849 15.0423H25.117C25.5037 15.0423 25.8747 15.196 26.1482 15.4695C26.4217 15.7429 26.5753 16.1139 26.5753 16.5007C26.5753 16.8874 26.4217 17.2584 26.1482 17.5319C25.8747 17.8053 25.5037 17.959 25.117 17.959H13.1849C12.7981 17.959 12.4272 17.8053 12.1537 17.5319C11.8802 17.2584 11.7266 16.8874 11.7266 16.5007ZM13.1849 22.9961C12.7981 22.9961 12.4272 23.1497 12.1537 23.4232C11.8802 23.6967 11.7266 24.0676 11.7266 24.4544C11.7266 24.8412 11.8802 25.2121 12.1537 25.4856C12.4272 25.7591 12.7981 25.9127 13.1849 25.9127H25.117C25.5037 25.9127 25.8747 25.7591 26.1482 25.4856C26.4217 25.2121 26.5753 24.8412 26.5753 24.4544C26.5753 24.0676 26.4217 23.6967 26.1482 23.4232C25.8747 23.1497 25.5037 22.9961 25.117 22.9961H13.1849ZM11.7266 8.5469C11.7266 8.16013 11.8802 7.7892 12.1537 7.5157C12.4272 7.24221 12.7981 7.08857 13.1849 7.08857H25.117C25.5037 7.08857 25.8747 7.24221 26.1482 7.5157C26.4217 7.7892 26.5753 8.16013 26.5753 8.5469C26.5753 8.93368 26.4217 9.30461 26.1482 9.5781C25.8747 9.85159 25.5037 10.0052 25.117 10.0052H13.1849C12.7981 10.0052 12.4272 9.85159 12.1537 9.5781C11.8802 9.30461 11.7266 8.93368 11.7266 8.5469ZM9.60613 8.5469C9.60613 9.00407 9.42453 9.44251 9.10126 9.76578C8.77799 10.089 8.33955 10.2707 7.88238 10.2707C7.42522 10.2707 6.98677 10.089 6.66351 9.76578C6.34024 9.44251 6.15863 9.00407 6.15863 8.5469C6.15863 8.08974 6.34024 7.65129 6.66351 7.32803C6.98677 7.00476 7.42522 6.82315 7.88238 6.82315C8.33955 6.82315 8.77799 7.00476 9.10126 7.32803C9.42453 7.65129 9.60613 8.08974 9.60613 8.5469ZM7.88093 18.2244C8.10729 18.2244 8.33144 18.1798 8.54058 18.0932C8.74971 18.0066 8.93974 17.8796 9.0998 17.7195C9.25987 17.5595 9.38684 17.3694 9.47346 17.1603C9.56009 16.9512 9.60468 16.727 9.60468 16.5007C9.60468 16.2743 9.56009 16.0501 9.47346 15.841C9.38684 15.6319 9.25987 15.4418 9.0998 15.2818C8.93974 15.1217 8.74971 14.9947 8.54058 14.9081C8.33144 14.8215 8.10729 14.7769 7.88093 14.7769C7.42376 14.7769 6.98532 14.9585 6.66205 15.2818C6.33878 15.605 6.15718 16.0435 6.15718 16.5007C6.15718 16.9578 6.33878 17.3963 6.66205 17.7195C6.98532 18.0428 7.42376 18.2244 7.88093 18.2244ZM9.60468 24.4544C9.60468 24.9116 9.42307 25.35 9.0998 25.6733C8.77654 25.9965 8.33809 26.1782 7.88093 26.1782C7.42376 26.1782 6.98532 25.9965 6.66205 25.6733C6.33878 25.35 6.15718 24.9116 6.15718 24.4544C6.15718 23.9972 6.33878 23.5588 6.66205 23.2355C6.98532 22.9123 7.42376 22.7307 7.88093 22.7307C8.33809 22.7307 8.77654 22.9123 9.0998 23.2355C9.42307 23.5588 9.60468 23.9972 9.60468 24.4544Z" fill="url(#paint0_linear_110_1536)"/>
<defs>
<linearGradient id="paint0_linear_110_1536" x1="16.4997" y1="0.458984" x2="16.4997" y2="32.5423" gradientUnits="userSpaceOnUse">
<stop stop-color="#73A8FF"/>
<stop offset="0.365" stop-color="#6FA7FF"/>
<stop offset="1" stop-color="#3C6CEC"/>
</linearGradient>
</defs>
</svg>
