<svg width="206" height="23" viewBox="0 0 206 23" fill="none" xmlns="http://www.w3.org/2000/svg">
<path d="M190.299 16.0616V6.19629H194.329V15.1894C194.329 16.3925 194.55 17.3048 194.991 17.9264C195.432 18.528 196.084 18.8287 196.946 18.8287C197.467 18.8287 197.979 18.7285 198.48 18.528C199.001 18.3074 199.472 17.9866 199.893 17.5655C200.335 17.1444 200.706 16.613 201.006 15.9714V6.19629H205.037V17.4452C205.037 17.8663 205.107 18.167 205.247 18.3475C205.408 18.528 205.658 18.6382 205.999 18.6783V21.9568C205.598 22.0169 205.257 22.057 204.977 22.0771C204.716 22.1172 204.475 22.1372 204.255 22.1372C203.533 22.1372 202.941 21.9768 202.48 21.656C202.039 21.3151 201.778 20.8539 201.698 20.2724L201.608 19.0092C200.906 20.0719 200.004 20.884 198.901 21.4455C197.798 21.9868 196.585 22.2575 195.262 22.2575C193.637 22.2575 192.404 21.7362 191.562 20.6935C190.72 19.6308 190.299 18.0868 190.299 16.0616Z" fill="#4F5D80"/>
<path d="M188.202 9.68485C186.979 9.68485 185.887 9.92547 184.924 10.4067C183.962 10.8679 183.27 11.5396 182.849 12.4219V21.9564H178.818V6.19589H182.518V9.56454C183.079 8.48176 183.791 7.62957 184.653 7.00798C185.516 6.38638 186.428 6.04551 187.39 5.98535C187.611 5.98535 187.781 5.98535 187.902 5.98535C188.022 5.98535 188.122 5.99538 188.202 6.01543V9.68485Z" fill="#4F5D80"/>
<path d="M171.973 21.9561V17.625H175.281V21.9561H171.973Z" fill="#4F5D80"/>
<path d="M169.963 21.1445C169.622 21.2849 169.211 21.4453 168.73 21.6258C168.249 21.8062 167.727 21.9466 167.166 22.0469C166.624 22.1672 166.073 22.2273 165.512 22.2273C164.77 22.2273 164.088 22.097 163.466 21.8363C162.845 21.5756 162.343 21.1646 161.962 20.6031C161.601 20.0217 161.421 19.2697 161.421 18.3473V9.2941H159.346V6.19614H161.421V1.08301H165.451V6.19614H168.76V9.2941H165.451V16.9939C165.471 17.5353 165.622 17.9263 165.903 18.1669C166.183 18.4075 166.534 18.5278 166.955 18.5278C167.376 18.5278 167.787 18.4576 168.188 18.3173C168.589 18.1769 168.91 18.0566 169.151 17.9563L169.963 21.1445Z" fill="#4F5D80"/>
<path d="M157.103 21.956H153.072V13.1133C153.072 11.85 152.852 10.9277 152.411 10.3462C151.97 9.76467 151.358 9.47392 150.576 9.47392C150.035 9.47392 149.483 9.61428 148.922 9.895C148.38 10.1757 147.889 10.5667 147.448 11.068C147.007 11.5492 146.686 12.1107 146.485 12.7523V21.956H142.455V6.1955H146.094V9.11299C146.495 8.43124 147.007 7.85977 147.628 7.39859C148.25 6.91735 148.962 6.55643 149.764 6.31581C150.586 6.05514 151.448 5.9248 152.35 5.9248C153.333 5.9248 154.135 6.10527 154.757 6.46619C155.398 6.80707 155.88 7.27828 156.2 7.87983C156.541 8.46132 156.772 9.12302 156.892 9.86493C157.033 10.6068 157.103 11.3588 157.103 12.1207V21.956Z" fill="#4F5D80"/>
<path d="M131.758 22.2568C130.495 22.2568 129.352 22.0462 128.33 21.6251C127.307 21.184 126.435 20.5925 125.713 19.8506C124.991 19.0886 124.43 18.2264 124.029 17.2639C123.648 16.2814 123.457 15.2488 123.457 14.166C123.457 12.6621 123.788 11.2886 124.45 10.0454C125.131 8.8022 126.094 7.80965 127.337 7.06774C128.6 6.30578 130.084 5.9248 131.788 5.9248C133.513 5.9248 134.987 6.30578 136.21 7.06774C137.433 7.80965 138.365 8.8022 139.007 10.0454C139.669 11.2685 140 12.5919 140 14.0156C140 14.2562 139.989 14.5068 139.969 14.7675C139.949 15.0081 139.929 15.2086 139.909 15.3691H127.728C127.808 16.1711 128.039 16.8729 128.42 17.4745C128.821 18.076 129.322 18.5372 129.924 18.858C130.545 19.1588 131.207 19.3092 131.909 19.3092C132.711 19.3092 133.463 19.1187 134.165 18.7377C134.886 18.3367 135.378 17.8153 135.638 17.1737L139.097 18.1362C138.716 18.9382 138.165 19.6501 137.443 20.2717C136.741 20.8932 135.909 21.3845 134.947 21.7454C133.984 22.0863 132.921 22.2568 131.758 22.2568ZM127.638 12.8125H135.879C135.799 12.0104 135.568 11.3187 135.187 10.7372C134.826 10.1356 134.345 9.67443 133.743 9.35361C133.142 9.01274 132.47 8.8423 131.728 8.8423C131.006 8.8423 130.345 9.01274 129.743 9.35361C129.162 9.67443 128.68 10.1356 128.299 10.7372C127.939 11.3187 127.718 12.0104 127.638 12.8125Z" fill="#4F5D80"/>
<path d="M122.527 21.1445C122.187 21.2849 121.775 21.4453 121.294 21.6258C120.813 21.8062 120.292 21.9466 119.73 22.0469C119.189 22.1672 118.637 22.2273 118.076 22.2273C117.334 22.2273 116.652 22.097 116.031 21.8363C115.409 21.5756 114.908 21.1646 114.527 20.6031C114.166 20.0217 113.985 19.2697 113.985 18.3473V9.2941H111.91V6.19614H113.985V1.08301H118.016V6.19614H121.324V9.2941H118.016V16.9939C118.036 17.5353 118.186 17.9263 118.467 18.1669C118.748 18.4075 119.099 18.5278 119.52 18.5278C119.941 18.5278 120.352 18.4576 120.753 18.3173C121.154 18.1769 121.475 18.0566 121.715 17.9563L122.527 21.1445Z" fill="#4F5D80"/>
<path d="M100.422 15.5202V11.8809H109.535V15.5202H100.422Z" fill="#4F5D80"/>
<path d="M89.815 22.2568C88.5517 22.2568 87.4088 22.0462 86.3862 21.6251C85.3636 21.184 84.4913 20.5925 83.7695 19.8506C83.0476 19.0886 82.4862 18.2264 82.0851 17.2639C81.7042 16.2814 81.5137 15.2488 81.5137 14.166C81.5137 12.6621 81.8445 11.2886 82.5062 10.0454C83.188 8.8022 84.1504 7.80965 85.3936 7.06774C86.6569 6.30578 88.1407 5.9248 89.8451 5.9248C91.5695 5.9248 93.0433 6.30578 94.2664 7.06774C95.4896 7.80965 96.422 8.8022 97.0636 10.0454C97.7253 11.2685 98.0562 12.5919 98.0562 14.0156C98.0562 14.2562 98.0461 14.5068 98.0261 14.7675C98.006 15.0081 97.986 15.2086 97.9659 15.3691H85.7846C85.8648 16.1711 86.0954 16.8729 86.4764 17.4745C86.8774 18.076 87.3787 18.5372 87.9803 18.858C88.6019 19.1588 89.2636 19.3092 89.9654 19.3092C90.7674 19.3092 91.5194 19.1187 92.2212 18.7377C92.943 18.3367 93.4343 17.8153 93.695 17.1737L97.1538 18.1362C96.7729 18.9382 96.2214 19.6501 95.4996 20.2717C94.7978 20.8932 93.9657 21.3845 93.0032 21.7454C92.0407 22.0863 90.978 22.2568 89.815 22.2568ZM85.6944 12.8125H93.9356C93.8554 12.0104 93.6248 11.3187 93.2438 10.7372C92.8829 10.1356 92.4016 9.67443 91.8001 9.35361C91.1985 9.01274 90.5268 8.8423 89.7849 8.8423C89.0631 8.8423 88.4014 9.01274 87.7998 9.35361C87.2183 9.67443 86.7371 10.1356 86.3561 10.7372C85.9952 11.3187 85.7746 12.0104 85.6944 12.8125Z" fill="#4F5D80"/>
<path d="M72.9316 0H76.962V16.9034C76.962 17.6253 77.0823 18.1165 77.3229 18.3772C77.5635 18.6178 77.8944 18.7381 78.3155 18.7381C78.6363 18.7381 78.9671 18.698 79.308 18.6178C79.6489 18.5376 79.9497 18.4374 80.2103 18.317L80.7517 21.3849C80.2103 21.6456 79.5787 21.8461 78.8569 21.9865C78.135 22.1268 77.4833 22.197 76.9018 22.197C75.6386 22.197 74.6561 21.8662 73.9543 21.2045C73.2725 20.5227 72.9316 19.5602 72.9316 18.317V0Z" fill="#4F5D80"/>
<path d="M65.2949 21.9564V6.19591H69.3253V21.9564H65.2949ZM65.2949 4.00027V0H69.3253V4.00027H65.2949Z" fill="#4F5D80"/>
<path d="M55.1954 22.2572C53.9924 22.2572 52.9196 21.9865 51.9772 21.4451C51.0348 20.9037 50.2929 20.1618 49.7515 19.2194V21.9564H46.2324V0H50.2628V8.96302C50.8242 8.0206 51.5561 7.27869 52.4584 6.7373C53.3808 6.19591 54.4535 5.92522 55.6767 5.92522C56.6993 5.92522 57.6317 6.14578 58.4739 6.58692C59.316 7.008 60.0379 7.59952 60.6394 8.36147C61.261 9.12343 61.7322 9.99567 62.0531 10.9782C62.3939 11.9607 62.5644 13.0134 62.5644 14.1363C62.5644 15.2592 62.3739 16.3119 61.9929 17.2944C61.632 18.2769 61.1207 19.1492 60.459 19.9111C59.7973 20.653 59.0153 21.2345 58.1129 21.6556C57.2307 22.0566 56.2582 22.2572 55.1954 22.2572ZM54.0826 18.8284C54.7242 18.8284 55.3057 18.708 55.8271 18.4674C56.3685 18.2068 56.8296 17.8659 57.2106 17.4448C57.6116 17.0237 57.9124 16.5325 58.1129 15.971C58.3335 15.3895 58.4438 14.788 58.4438 14.1664C58.4438 13.3042 58.2633 12.5121 57.9024 11.7903C57.5615 11.0484 57.0803 10.4569 56.4587 10.0157C55.8571 9.57459 55.1453 9.35402 54.3232 9.35402C53.7417 9.35402 53.1803 9.49438 52.6389 9.7751C52.1175 10.0358 51.6463 10.3967 51.2252 10.8579C50.8242 11.3191 50.5034 11.8404 50.2628 12.4219V16.1816C50.3831 16.5826 50.5736 16.9435 50.8342 17.2643C51.115 17.5852 51.4358 17.8659 51.7967 18.1065C52.1576 18.3271 52.5286 18.5075 52.9096 18.6479C53.3106 18.7682 53.7016 18.8284 54.0826 18.8284Z" fill="#4F5D80"/>
<path d="M35.2712 22.2568C33.9879 22.2568 32.835 22.0462 31.8124 21.6251C30.7897 21.184 29.9175 20.5825 29.1956 19.8205C28.4938 19.0585 27.9524 18.1863 27.5715 17.2038C27.1905 16.2213 27 15.1886 27 14.1058C27 13.003 27.1905 11.9603 27.5715 10.9778C27.9524 9.99526 28.4938 9.12302 29.1956 8.36106C29.9175 7.59911 30.7897 7.00759 31.8124 6.5865C32.835 6.14537 33.9879 5.9248 35.2712 5.9248C36.5545 5.9248 37.6975 6.14537 38.7 6.5865C39.7227 7.00759 40.5949 7.59911 41.3168 8.36106C42.0386 9.12302 42.58 9.99526 42.9409 10.9778C43.3219 11.9603 43.5124 13.003 43.5124 14.1058C43.5124 15.1886 43.3219 16.2213 42.9409 17.2038C42.58 18.1863 42.0386 19.0585 41.3168 19.8205C40.615 20.5825 39.7528 21.184 38.7301 21.6251C37.7075 22.0462 36.5545 22.2568 35.2712 22.2568ZM31.1507 14.1058C31.1507 15.0282 31.3311 15.8503 31.6921 16.5722C32.053 17.274 32.5442 17.8254 33.1658 18.2264C33.7874 18.6274 34.4892 18.8279 35.2712 18.8279C36.0332 18.8279 36.725 18.6274 37.3466 18.2264C37.9682 17.8053 38.4594 17.2439 38.8204 16.5421C39.2013 15.8202 39.3918 14.9981 39.3918 14.0757C39.3918 13.1734 39.2013 12.3613 38.8204 11.6395C38.4594 10.9176 37.9682 10.3562 37.3466 9.95516C36.725 9.55413 36.0332 9.35361 35.2712 9.35361C34.4892 9.35361 33.7874 9.56415 33.1658 9.98523C32.5442 10.3863 32.053 10.9477 31.6921 11.6696C31.3311 12.3714 31.1507 13.1834 31.1507 14.1058Z" fill="#4F5D80"/>
<path d="M24.4829 21.956H20.4525V13.1133C20.4525 11.8701 20.232 10.9577 19.7908 10.3762C19.3697 9.77469 18.7782 9.47392 18.0163 9.47392C17.2343 9.47392 16.4823 9.78472 15.7605 10.4063C15.0587 11.0079 14.5574 11.7999 14.2566 12.7824V21.956H10.2263V13.1133C10.2263 11.85 10.0057 10.9277 9.56456 10.3462C9.14348 9.76467 8.55196 9.47392 7.79001 9.47392C7.008 9.47392 6.25607 9.77469 5.53421 10.3762C4.83241 10.9778 4.33112 11.7698 4.03035 12.7523V21.956H0V6.1955H3.63935V9.11299C4.24089 8.09037 5.04295 7.30836 6.04553 6.76697C7.0481 6.20553 8.20106 5.9248 9.50441 5.9248C10.8078 5.9248 11.8204 6.24563 12.5422 6.88728C13.2841 7.52893 13.7553 8.32096 13.9558 9.26338C14.5975 8.1806 15.4096 7.35849 16.3921 6.79705C17.3947 6.21555 18.5176 5.9248 19.7608 5.9248C20.7433 5.9248 21.5353 6.10527 22.1369 6.46619C22.7585 6.80707 23.2397 7.27828 23.5806 7.87983C23.9214 8.46132 24.152 9.12302 24.2723 9.86493C24.4127 10.6068 24.4829 11.3588 24.4829 12.1207V21.956Z" fill="#4F5D80"/>
</svg>
