<svg width="157" height="18" viewBox="0 0 157 18" fill="none" xmlns="http://www.w3.org/2000/svg">
<path d="M144.988 12.525V5.14746H148.072V11.8727C148.072 12.7724 148.24 13.4546 148.578 13.9195C148.915 14.3693 149.414 14.5943 150.073 14.5943C150.472 14.5943 150.863 14.5193 151.247 14.3693C151.646 14.2044 152.006 13.9645 152.328 13.6496C152.666 13.3347 152.95 12.9373 153.18 12.4575V5.14746H156.263V13.5596C156.263 13.8745 156.317 14.0994 156.424 14.2344C156.547 14.3693 156.738 14.4518 156.999 14.4818V16.9335C156.692 16.9784 156.432 17.0084 156.217 17.0234C156.017 17.0534 155.833 17.0684 155.665 17.0684C155.112 17.0684 154.66 16.9485 154.307 16.7085C153.97 16.4536 153.77 16.1087 153.709 15.6739L153.64 14.7292C153.103 15.5239 152.413 16.1312 151.569 16.5511C150.725 16.956 149.797 17.1584 148.785 17.1584C147.542 17.1584 146.599 16.7685 145.955 15.9888C145.31 15.1941 144.988 14.0394 144.988 12.525Z" fill="white"/>
<path d="M143.274 7.92965C142.379 7.92965 141.58 8.11061 140.876 8.47252C140.172 8.81935 139.666 9.32452 139.358 9.98802V17.1584H136.41V5.3058H139.116V7.83918C139.527 7.02488 140.047 6.38399 140.678 5.91652C141.308 5.44905 141.976 5.1927 142.68 5.14746C142.841 5.14746 142.966 5.14746 143.054 5.14746C143.142 5.14746 143.215 5.155 143.274 5.17008V7.92965Z" fill="white"/>
<path d="M131.262 17.1583V13.7266H133.835V17.1583H131.262Z" fill="white"/>
<path d="M129.546 16.3242C129.298 16.4324 128.999 16.5561 128.649 16.6952C128.299 16.8343 127.92 16.9425 127.511 17.0198C127.118 17.1126 126.717 17.1589 126.308 17.1589C125.769 17.1589 125.273 17.0585 124.821 16.8575C124.369 16.6566 124.004 16.3397 123.727 15.9068C123.465 15.4586 123.333 14.8789 123.333 14.1678V7.18848H121.824V4.80021H123.333V0.858398H126.265V4.80021H128.671V7.18848H126.265V13.1244C126.279 13.5418 126.388 13.8432 126.593 14.0287C126.797 14.2142 127.052 14.3069 127.358 14.3069C127.664 14.3069 127.963 14.2528 128.255 14.1446C128.547 14.0364 128.78 13.9437 128.955 13.8664L129.546 16.3242Z" fill="white"/>
<path d="M120.11 17.1584H117.041V10.5332C117.041 9.58677 116.873 8.89571 116.537 8.46004C116.202 8.02438 115.736 7.80654 115.14 7.80654C114.728 7.80654 114.308 7.9117 113.881 8.12203C113.469 8.33235 113.095 8.6253 112.759 9.00087C112.423 9.36143 112.179 9.78207 112.026 10.2628V17.1584H108.957V5.35027H111.728V7.53613C112.033 7.02534 112.423 6.59719 112.896 6.25165C113.369 5.8911 113.911 5.62069 114.522 5.44041C115.148 5.24511 115.805 5.14746 116.492 5.14746C117.24 5.14746 117.85 5.28267 118.324 5.55308C118.812 5.80848 119.179 6.16152 119.423 6.61221C119.683 7.04788 119.858 7.54364 119.95 8.09949C120.057 8.65534 120.11 9.21871 120.11 9.78958V17.1584Z" fill="white"/>
<path d="M100.398 17.1584C99.4812 17.1584 98.6514 17.0036 97.9089 16.6939C97.1664 16.3695 96.5331 15.9344 96.009 15.3888C95.4848 14.8285 95.0772 14.1944 94.786 13.4865C94.5094 12.764 94.3711 12.0045 94.3711 11.2082C94.3711 10.1022 94.6113 9.09212 95.0918 8.17784C95.5867 7.26357 96.2856 6.53362 97.1882 5.988C98.1054 5.42764 99.1827 5.14746 100.42 5.14746C101.672 5.14746 102.742 5.42764 103.63 5.988C104.519 6.53362 105.195 7.26357 105.661 8.17784C106.142 9.07737 106.382 10.0506 106.382 11.0976C106.382 11.2746 106.375 11.4589 106.36 11.6506C106.346 11.8276 106.331 11.975 106.317 12.093H97.4721C97.5303 12.6829 97.6978 13.199 97.9744 13.6414C98.2655 14.0838 98.6295 14.4229 99.0663 14.6589C99.5176 14.8801 99.998 14.9907 100.508 14.9907C101.09 14.9907 101.636 14.8506 102.145 14.5704C102.67 14.2755 103.026 13.8921 103.216 13.4202L105.727 14.128C105.45 14.7179 105.05 15.2414 104.526 15.6985C104.016 16.1556 103.412 16.5169 102.713 16.7824C102.014 17.033 101.243 17.1584 100.398 17.1584ZM97.4066 10.2128H103.39C103.332 9.62299 103.165 9.11424 102.888 8.68659C102.626 8.2442 102.276 7.90503 101.84 7.66909C101.403 7.4184 100.915 7.29306 100.377 7.29306C99.8525 7.29306 99.372 7.4184 98.9352 7.66909C98.513 7.90503 98.1636 8.2442 97.887 8.68659C97.625 9.11424 97.4648 9.62299 97.4066 10.2128Z" fill="white"/>
<path d="M93.5128 16.3242C93.2374 16.4324 92.9052 16.5561 92.5164 16.6952C92.1275 16.8343 91.7062 16.9425 91.2526 17.0198C90.8151 17.1126 90.3695 17.1589 89.9159 17.1589C89.3164 17.1589 88.7655 17.0585 88.2632 16.8575C87.7609 16.6566 87.3559 16.3397 87.048 15.9068C86.7564 15.4586 86.6106 14.8789 86.6106 14.1678V7.18848H84.9336V4.80021H86.6106V0.858398H89.8673V4.80021H92.5407V7.18848H89.8673V13.1244C89.8835 13.5418 90.005 13.8432 90.2318 14.0287C90.4587 14.2142 90.7422 14.3069 91.0824 14.3069C91.4227 14.3069 91.7549 14.2528 92.0789 14.1446C92.403 14.0364 92.6622 13.9437 92.8566 13.8664L93.5128 16.3242Z" fill="white"/>
<path d="M76.3555 12.0113V9.4375H83.2189V12.0113H76.3555Z" fill="white"/>
<path d="M68.2274 17.1584C67.2446 17.1584 66.3555 17.0036 65.56 16.6939C64.7645 16.3695 64.0859 15.9344 63.5244 15.3888C62.9628 14.8285 62.5261 14.1944 62.2141 13.4865C61.9177 12.764 61.7695 12.0045 61.7695 11.2082C61.7695 10.1022 62.0269 9.09212 62.5417 8.17784C63.072 7.26357 63.8207 6.53362 64.7879 5.988C65.7706 5.42764 66.9249 5.14746 68.2508 5.14746C69.5922 5.14746 70.7387 5.42764 71.6902 5.988C72.6418 6.53362 73.3671 7.26357 73.8663 8.17784C74.381 9.07737 74.6384 10.0506 74.6384 11.0976C74.6384 11.2746 74.6306 11.4589 74.615 11.6506C74.5994 11.8276 74.5838 11.975 74.5682 12.093H65.092C65.1544 12.6829 65.3338 13.199 65.6302 13.6414C65.9422 14.0838 66.3321 14.4229 66.8001 14.6589C67.2836 14.8801 67.7984 14.9907 68.3443 14.9907C68.9683 14.9907 69.5532 14.8506 70.0992 14.5704C70.6607 14.2755 71.0429 13.8921 71.2457 13.4202L73.9364 14.128C73.6401 14.7179 73.2111 15.2414 72.6496 15.6985C72.1036 16.1556 71.4563 16.5169 70.7075 16.7824C69.9588 17.033 69.1321 17.1584 68.2274 17.1584ZM65.0218 10.2128H71.4329C71.3705 9.62299 71.1911 9.11424 70.8947 8.68659C70.6139 8.2442 70.2396 7.90503 69.7716 7.66909C69.3037 7.4184 68.7811 7.29306 68.204 7.29306C67.6424 7.29306 67.1277 7.4184 66.6597 7.66909C66.2073 7.90503 65.833 8.2442 65.5366 8.68659C65.2558 9.11424 65.0842 9.62299 65.0218 10.2128Z" fill="white"/>
<path d="M55.7656 0H58.8607V13.0665C58.8607 13.6245 58.9531 14.0042 59.1379 14.2057C59.3227 14.3917 59.5768 14.4847 59.9002 14.4847C60.1465 14.4847 60.4006 14.4537 60.6624 14.3917C60.9242 14.3297 61.1551 14.2522 61.3553 14.1592L61.7711 16.5307C61.3553 16.7322 60.8703 16.8872 60.3159 16.9957C59.7616 17.1042 59.2611 17.1585 58.8146 17.1585C57.8444 17.1585 57.0899 16.9027 56.551 16.3912C56.0274 15.8642 55.7656 15.1202 55.7656 14.1592V0Z" fill="white"/>
<path d="M49.7598 17.1585V4.84198H53.1915V17.1585H49.7598ZM49.7598 3.12613V0H53.1915V3.12613H49.7598Z" fill="white"/>
<path d="M42.2382 17.1585C41.2903 17.1585 40.445 16.9498 39.7024 16.5324C38.9598 16.115 38.3752 15.5431 37.9486 14.8166V16.9266H35.1758V0H38.3515V6.90976C38.7939 6.18323 39.3706 5.61128 40.0816 5.19391C40.8084 4.77655 41.6537 4.56786 42.6174 4.56786C43.4232 4.56786 44.1579 4.7379 44.8215 5.07798C45.4851 5.4026 46.0539 5.85861 46.5279 6.44602C47.0177 7.03343 47.3889 7.70585 47.6417 8.4633C47.9103 9.22075 48.0446 10.0323 48.0446 10.8979C48.0446 11.7636 47.8945 12.5751 47.5943 13.3326C47.3099 14.09 46.9071 14.7625 46.3857 15.3499C45.8643 15.9218 45.2481 16.3701 44.5371 16.6947C43.8419 17.0039 43.0756 17.1585 42.2382 17.1585ZM41.3614 14.5151C41.867 14.5151 42.3251 14.4224 42.7359 14.2369C43.1625 14.0359 43.5259 13.7731 43.8261 13.4485C44.1421 13.1239 44.3791 12.7452 44.5371 12.3124C44.7109 11.8641 44.7978 11.4003 44.7978 10.9211C44.7978 10.2564 44.6556 9.64584 44.3712 9.08935C44.1026 8.5174 43.7234 8.06139 43.2336 7.72131C42.7596 7.38123 42.1987 7.21119 41.551 7.21119C41.0928 7.21119 40.6504 7.3194 40.2238 7.53581C39.813 7.73677 39.4417 8.01501 39.1099 8.37055C38.7939 8.72609 38.5411 9.128 38.3515 9.57628V12.4747C38.4463 12.7838 38.5964 13.0621 38.8018 13.3094C39.023 13.5567 39.2758 13.7731 39.5602 13.9586C39.8446 14.1287 40.1369 14.2678 40.4371 14.376C40.7531 14.4688 41.0612 14.5151 41.3614 14.5151Z" fill="white"/>
<path d="M27.036 17.1584C26.0359 17.1584 25.1373 17.0036 24.3403 16.6939C23.5434 16.3695 22.8636 15.9271 22.301 15.3667C21.7541 14.8063 21.3321 14.1649 21.0352 13.4423C20.7383 12.7197 20.5898 11.9603 20.5898 11.164C20.5898 10.3529 20.7383 9.58612 21.0352 8.86355C21.3321 8.14098 21.7541 7.49951 22.301 6.93915C22.8636 6.37878 23.5434 5.94377 24.3403 5.63409C25.1373 5.30967 26.0359 5.14746 27.036 5.14746C28.0361 5.14746 28.9269 5.30967 29.7082 5.63409C30.5052 5.94377 31.185 6.37878 31.7475 6.93915C32.3101 7.49951 32.732 8.14098 33.0133 8.86355C33.3102 9.58612 33.4587 10.3529 33.4587 11.164C33.4587 11.9603 33.3102 12.7197 33.0133 13.4423C32.732 14.1649 32.3101 14.8063 31.7475 15.3667C31.2006 15.9271 30.5286 16.3695 29.7317 16.6939C28.9347 17.0036 28.0361 17.1584 27.036 17.1584ZM23.8246 11.164C23.8246 11.8423 23.9653 12.4469 24.2466 12.9778C24.5279 13.4939 24.9107 13.8994 25.3952 14.1944C25.8796 14.4893 26.4265 14.6368 27.036 14.6368C27.6298 14.6368 28.169 14.4893 28.6534 14.1944C29.1378 13.8847 29.5207 13.4718 29.802 12.9557C30.0989 12.4248 30.2473 11.8202 30.2473 11.1419C30.2473 10.4783 30.0989 9.88105 29.802 9.35018C29.5207 8.81931 29.1378 8.40641 28.6534 8.11148C28.169 7.81656 27.6298 7.66909 27.036 7.66909C26.4265 7.66909 25.8796 7.82393 25.3952 8.1336C24.9107 8.42853 24.5279 8.84143 24.2466 9.3723C23.9653 9.88842 23.8246 10.4857 23.8246 11.164Z" fill="white"/>
<path d="M18.8743 17.1584H15.7672V10.5332C15.7672 9.6018 15.5972 8.91825 15.2571 8.48258C14.9325 8.03189 14.4765 7.80654 13.8891 7.80654C13.2862 7.80654 12.7065 8.0394 12.1501 8.50511C11.609 8.95581 11.2226 9.54922 10.9907 10.2853V17.1584H7.88362V10.5332C7.88362 9.58677 7.71358 8.89571 7.37351 8.46004C7.04889 8.02438 6.59287 7.80654 6.00546 7.80654C5.4026 7.80654 4.82292 8.03189 4.26643 8.48258C3.7254 8.93327 3.33895 9.52668 3.10707 10.2628V17.1584H0V5.35027H2.80564V7.53613C3.26938 6.76995 3.88771 6.18405 4.66061 5.77843C5.43352 5.35778 6.32236 5.14746 7.32713 5.14746C8.33191 5.14746 9.11254 5.38783 9.66903 5.86857C10.241 6.34931 10.6042 6.94272 10.7588 7.6488C11.2535 6.83755 11.8795 6.22161 12.637 5.80096C13.4099 5.3653 14.2755 5.14746 15.2339 5.14746C15.9914 5.14746 16.602 5.28267 17.0657 5.55308C17.5449 5.80848 17.9159 6.16152 18.1787 6.61221C18.4415 7.04788 18.6193 7.54364 18.712 8.09949C18.8202 8.65534 18.8743 9.21871 18.8743 9.78958V17.1584Z" fill="white"/>
</svg>
