<svg width="17" height="17" viewBox="0 0 17 17" fill="none" xmlns="http://www.w3.org/2000/svg">
<path d="M0.756797 3.18022C0.906555 3.77239 1.21357 4.31307 1.64538 4.74508L2.04059 5.13522L5.14056 2.03545L4.74538 1.64528C4.31327 1.21357 3.77258 0.906585 3.18042 0.756764L0.206921 0.00504687C0.150144 -0.00923045 0.0900467 0.00737108 0.0485429 0.0485429C0.0282709 0.0689636 0.0136152 0.0942729 0.00599495 0.12202C-0.00162528 0.149767 -0.00195185 0.179011 0.00504687 0.206921L0.756797 3.18022ZM4.25793 7.32396L7.35763 4.22446L5.84942 2.7353L2.74951 5.83501L4.25793 7.32396ZM9.67448 12.7749L12.7737 9.67574L14.6314 11.5334L11.5322 14.6326L9.67448 12.7749ZM15.3389 12.2382L12.239 15.338L13.2592 16.3582C13.6733 16.7719 14.2238 17 14.8092 17C15.3946 17 15.9451 16.7719 16.3592 16.3582C17.2136 15.5035 17.2136 14.113 16.3592 13.2584L15.3389 12.2382ZM7.66838 9.12712C7.86292 8.93262 8.17828 8.93262 8.37275 9.12712L10.0884 10.8426L10.8434 10.0877L9.86407 9.1085C9.66953 8.91403 9.66953 8.5987 9.86407 8.40416C10.0586 8.20969 10.3739 8.20962 10.5684 8.40416L11.5477 9.38335L12.316 8.6151L10.6004 6.8996C10.4059 6.70513 10.4059 6.38976 10.6004 6.19526C10.7949 6.00079 11.1103 6.00072 11.3048 6.19526L13.0204 7.9108L13.7887 7.14254L12.8094 6.16335C12.6149 5.96888 12.6149 5.65355 12.8094 5.45901C13.0039 5.26454 13.3193 5.26448 13.5138 5.45901L14.4931 6.43821L15.2614 5.66995L13.5458 3.95442C13.3512 3.75995 13.3512 3.44459 13.5458 3.25008C13.7403 3.05558 14.0557 3.05558 14.2501 3.25008L15.9657 4.96562L16.6703 4.25995C16.8829 4.04739 16.9999 3.76473 16.9999 3.46411C16.9999 3.16349 16.8828 2.8809 16.6703 2.6683L14.3314 0.329673C14.1188 0.117074 13.8362 0 13.5356 0C13.235 0 12.9523 0.117041 12.7397 0.32964L0.32964 12.74C0.117074 12.9525 0 13.2352 0 13.5358C0 13.8364 0.117074 14.119 0.32964 14.3316L2.66853 16.6703C2.8811 16.8829 3.16372 17 3.46437 17C3.76503 17 4.04765 16.8829 4.26022 16.6703L4.96592 15.9647L3.98666 14.9855C3.79215 14.7911 3.79215 14.4757 3.98666 14.2812C4.18116 14.0867 4.49652 14.0867 4.69103 14.2812L5.67029 15.2604L6.43857 14.4921L4.72297 12.7767C4.52847 12.5822 4.52847 12.2668 4.72297 12.0723C4.91747 11.8779 5.23284 11.8779 5.42734 12.0723L7.14294 13.7878L7.91126 13.0196L6.93197 12.0404C6.73747 11.8459 6.73747 11.5306 6.93197 11.336C7.12651 11.1416 7.44187 11.1415 7.63637 11.336L8.61566 12.3152L9.38395 11.547L7.66835 9.83146C7.47384 9.63699 7.47384 9.32163 7.66838 9.12712Z" fill="#335EC3"/>
</svg>
