<svg width="31" height="29" viewBox="0 0 31 29" fill="none" xmlns="http://www.w3.org/2000/svg">
<path fill-rule="evenodd" clip-rule="evenodd" d="M18.594 13.4325C18.4307 13.4324 18.2741 13.3675 18.1587 13.252C18.0432 13.1366 17.9783 12.98 17.9782 12.8167V2.88774C17.9767 2.80591 17.9915 2.72461 18.0218 2.64859C18.0521 2.57256 18.0972 2.50333 18.1546 2.44494C18.2119 2.38655 18.2803 2.34017 18.3558 2.30851C18.4313 2.27685 18.5123 2.26055 18.5941 2.26055C18.676 2.26055 18.757 2.27685 18.8324 2.30851C18.9079 2.34017 18.9763 2.38655 19.0337 2.44494C19.091 2.50333 19.1361 2.57256 19.1664 2.64859C19.1967 2.72461 19.2115 2.80591 19.2101 2.88774V12.8167C19.21 12.98 19.1451 13.1367 19.0296 13.2522C18.914 13.3677 18.7574 13.4325 18.594 13.4325ZM11.5757 0.0214844C10.0195 0.0214844 8.75368 1.28748 8.75368 2.84353C8.75388 4.39979 10.0195 5.66558 11.5755 5.66558C13.1312 5.66558 14.3976 4.39979 14.3976 2.84374C14.3976 1.28748 13.1312 0.0216862 11.5757 0.0214844ZM10.3091 6.15063C7.99715 6.70531 6.33008 8.80696 6.33008 11.189V12.457H16.8206V11.1888C16.8206 8.80696 15.1539 6.70531 12.8421 6.15063C12.438 6.3058 12.0088 6.38517 11.5759 6.38477C11.1296 6.38477 10.7025 6.30181 10.3091 6.15063Z" fill="url(#paint0_linear_110_1545)"/>
<path fill-rule="evenodd" clip-rule="evenodd" d="M17.9791 1.19141V8.13965L25.198 4.66543L17.9791 1.19141ZM25.2427 15.4438C23.6864 15.4438 22.4198 16.7098 22.4198 18.2656C22.4202 19.8219 23.6864 21.0879 25.2425 21.0879C26.7983 21.0879 28.0645 19.8219 28.0645 18.2658C28.0645 16.7096 26.7981 15.4438 25.2427 15.4438ZM23.976 21.5729C22.3808 21.9564 21.0276 23.1126 20.393 24.6309C20.9526 25.5372 21.2727 26.5973 21.2727 27.7117V27.8791H30.4873V26.6115C30.4873 24.2292 28.8206 22.1276 26.5089 21.5729C26.1048 21.7281 25.6755 21.8075 25.2427 21.807C24.7966 21.807 24.3695 21.7241 23.976 21.5729ZM14.0421 22.6732C11.7301 23.2277 10.063 25.3293 10.063 27.7117V28.9793H20.5533V27.7117C20.5533 25.3293 18.8864 23.2279 16.5749 22.6732C16.1708 22.8284 15.7415 22.9077 15.3087 22.9073C14.8626 22.9073 14.4357 22.8246 14.0421 22.6732ZM15.3087 16.5442C13.7524 16.5442 12.4864 17.81 12.4864 19.3661C12.4866 20.9223 13.7522 22.1881 15.3085 22.1881C16.8647 22.1881 18.1303 20.9221 18.1303 19.3663C18.1305 17.81 16.8647 16.544 15.3085 16.544L15.3087 16.5442ZM5.75676 15.4438C4.20051 15.4438 2.93451 16.7098 2.93451 18.2656C2.93491 19.8219 4.20031 21.0879 5.75656 21.0879C7.31302 21.0879 8.57841 19.8219 8.57841 18.2658C8.57861 16.7096 7.31282 15.4438 5.75676 15.4438ZM4.49036 21.5729C2.17859 22.1276 0.511719 24.2292 0.511719 26.6115V27.8791H9.34342V27.7115C9.34342 26.455 9.75075 25.2675 10.4495 24.2914C9.76225 22.9309 8.49949 21.9276 7.02276 21.5729C6.61866 21.7281 6.18943 21.8075 5.75656 21.807C5.31048 21.807 4.88377 21.7241 4.49036 21.5729Z" fill="url(#paint1_linear_110_1545)"/>
<defs>
<linearGradient id="paint0_linear_110_1545" x1="12.7701" y1="0.0214844" x2="12.7701" y2="13.4325" gradientUnits="userSpaceOnUse">
<stop stop-color="#73A8FF"/>
<stop offset="0.365" stop-color="#6FA7FF"/>
<stop offset="1" stop-color="#3C6CEC"/>
</linearGradient>
<linearGradient id="paint1_linear_110_1545" x1="15.4995" y1="1.19141" x2="15.4995" y2="28.9793" gradientUnits="userSpaceOnUse">
<stop stop-color="#73A8FF"/>
<stop offset="0.365" stop-color="#6FA7FF"/>
<stop offset="1" stop-color="#3C6CEC"/>
</linearGradient>
</defs>
</svg>
