<svg width="25" height="26" viewBox="0 0 25 26" fill="none" xmlns="http://www.w3.org/2000/svg">
<path d="M23.501 11.5007L13.7786 11.5301V1.99901C13.779 1.80204 13.7405 1.60692 13.6653 1.42487C13.5901 1.24281 13.4797 1.07739 13.3405 0.93811C13.2012 0.79883 13.0358 0.68843 12.8537 0.613248C12.6716 0.538065 12.4765 0.499581 12.2796 0.500003C12.0826 0.499581 11.8875 0.538065 11.7054 0.613248C11.5234 0.68843 11.3579 0.79883 11.2187 0.93811C11.0794 1.07739 10.969 1.24281 10.8938 1.42487C10.8186 1.60692 10.7801 1.80204 10.7806 1.99901L10.8099 11.501H1.49901C1.30204 11.5006 1.10692 11.5391 0.924865 11.6142C0.742806 11.6894 0.577389 11.7998 0.43811 11.9391C0.29883 12.0784 0.18843 12.2438 0.113248 12.4259C0.0380652 12.6079 -0.00041924 12.803 3.44629e-06 13C-0.000419367 13.197 0.0380669 13.3921 0.113253 13.5741C0.188438 13.7562 0.298842 13.9216 0.438126 14.0608C0.577409 14.2001 0.742828 14.3104 0.924885 14.3856C1.10694 14.4607 1.30205 14.4992 1.49901 14.4987H10.7953V24.001C10.7949 24.198 10.8334 24.3931 10.9086 24.5751C10.9838 24.7571 11.0942 24.9225 11.2334 25.0618C11.3727 25.2011 11.5381 25.3115 11.7202 25.3867C11.9022 25.4619 12.0973 25.5004 12.2943 25.5C12.4912 25.5004 12.6863 25.4619 12.8684 25.3867C13.0504 25.3115 13.2158 25.2011 13.3551 25.0618C13.4944 24.9225 13.6048 24.7571 13.6799 24.5751C13.7551 24.3931 13.7936 24.198 13.7933 24.001V14.499H23.501C23.698 14.4994 23.8931 14.4609 24.0751 14.3857C24.2571 14.3105 24.4225 14.2001 24.5618 14.0608C24.7011 13.9216 24.8115 13.7561 24.8867 13.5741C24.9619 13.3921 25.0004 13.197 25 13C24.9996 12.6025 24.8416 12.2214 24.5606 11.9403C24.2795 11.6593 23.8985 11.5012 23.501 11.5007Z" fill="url(#paint0_linear_110_27632)"/>
<defs>
<linearGradient id="paint0_linear_110_27632" x1="12.5" y1="0.5" x2="12.5" y2="25.5" gradientUnits="userSpaceOnUse">
<stop stop-color="#73A8FF"/>
<stop offset="0.365" stop-color="#6FA7FF"/>
<stop offset="1" stop-color="#3C6CEC"/>
</linearGradient>
</defs>
</svg>
