<svg width="56" height="56" viewBox="0 0 56 56" fill="none" xmlns="http://www.w3.org/2000/svg">
<rect width="56" height="56" rx="28" fill="url(#paint0_linear_602_49839)"/>
<rect x="3" y="3" width="50" height="50" rx="25" stroke="url(#paint1_linear_602_49839)" stroke-opacity="0.3" stroke-width="6"/>
<path d="M19.3338 27.0635L30.0141 16.3834C30.2611 16.1362 30.5909 16 30.9425 16C31.2941 16 31.6239 16.1362 31.8709 16.3834L32.6574 17.1697C33.1692 17.6821 33.1692 18.5149 32.6574 19.0265L23.6889 27.995L32.6674 36.9735C32.9144 37.2207 33.0508 37.5503 33.0508 37.9017C33.0508 38.2535 32.9144 38.583 32.6674 38.8304L31.8808 39.6166C31.6336 39.8638 31.3041 40 30.9525 40C30.6008 40 30.2711 39.8638 30.0241 39.6166L19.3338 28.9267C19.0862 28.6787 18.9502 28.3476 18.951 27.9956C18.9502 27.6422 19.0862 27.3113 19.3338 27.0635Z" fill="white"/>
<defs>
<linearGradient id="paint0_linear_602_49839" x1="-1.83941e-06" y1="-62.087" x2="91.0346" y2="-31.9363" gradientUnits="userSpaceOnUse">
<stop stop-color="#243057"/>
<stop offset="1" stop-color="#374255"/>
</linearGradient>
<linearGradient id="paint1_linear_602_49839" x1="28" y1="0" x2="28" y2="56" gradientUnits="userSpaceOnUse">
<stop stop-color="white"/>
<stop offset="1" stop-color="white" stop-opacity="0.1"/>
</linearGradient>
</defs>
</svg>
