<svg width="50" height="50" viewBox="0 0 50 50" fill="none" xmlns="http://www.w3.org/2000/svg">
<g clip-path="url(#clip0_88_967)">
<path d="M27.8447 27.9505C39.7331 17.6466 31.6415 4.96512 31.6415 4.96512C31.6415 4.96512 30.5511 14.7732 22.1558 22.0495C10.2675 32.3534 18.3589 45.0349 18.3589 45.0349C18.3589 45.0349 19.4494 35.2268 27.8447 27.9505ZM39.3741 35.8258C49.2373 27.2771 42.5242 16.7559 42.5242 16.7559C42.5242 16.7559 41.6195 24.8932 34.6544 30.9301C24.7911 39.4788 31.5042 50 31.5042 50C31.5042 50 32.4089 41.8627 39.3741 35.8258ZM15.3461 19.0699C25.2093 10.5213 18.4962 0 18.4962 0C18.4962 0 17.5915 8.13731 10.6263 14.1742C0.763018 22.7228 7.47623 33.2441 7.47623 33.2441C7.47623 33.2441 8.38092 25.1068 15.3461 19.0699Z" fill="url(#paint0_linear_88_967)"/>
</g>
<defs>
<linearGradient id="paint0_linear_88_967" x1="25.0002" y1="0" x2="25.0002" y2="50" gradientUnits="userSpaceOnUse">
<stop stop-color="#73A8FF"/>
<stop offset="0.365" stop-color="#6FA7FF"/>
<stop offset="1" stop-color="#3C6CEC"/>
</linearGradient>
<clipPath id="clip0_88_967">
<rect width="50" height="50" fill="white"/>
</clipPath>
</defs>
</svg>
