<svg width="64" height="63" viewBox="0 0 64 63" fill="none" xmlns="http://www.w3.org/2000/svg">
<g clip-path="url(#clip0_88_975)">
<path d="M48.1354 21.4828C48.3158 18.1493 45.2382 15.3721 41.9994 15.4788C36.7545 15.5158 32.6546 22.1088 36.2493 26.4451C37.6064 28.2929 43.3484 30.5607 43.566 26.8658C43.3246 24.6561 41.4164 25.2765 39.8947 24.9834C36.3753 23.9945 37.8435 19.1616 40.6622 18.2167C42.7141 17.0597 46.1218 18.5857 45.4355 21.1842C44.9038 23.2401 48.1957 23.61 48.1354 21.4828ZM47.9525 32.9345C46.1556 37.8055 54.666 39.6276 54.3395 34.1302C54.1369 30.7499 49.2494 29.6876 47.9525 32.9345Z" fill="url(#paint0_linear_88_975)"/>
<path d="M51.5874 8.14051C51.6278 7.59197 51.4169 7.02226 50.8336 6.58951C30.9651 -8.7916 -1.08981 7.25261 0.561356 32.7129C2.08394 56.9829 27.6829 70.3813 48.3589 57.3434C49.926 56.3628 48.3904 54.0297 46.8737 55.0691C46.0873 55.5884 45.2266 56.1614 44.3955 56.5991C40.4356 58.786 36.342 59.9078 32.3406 60.118C26.9186 54.7996 33.2943 47.0163 32.778 40.6976C32.7721 39.1908 32.9383 38.3707 34.404 37.7574C40.4234 35.6542 40.2894 41.4673 43.3161 44.7425C44.4879 46.1827 46.3908 46.3095 47.4417 47.4505C48.9343 49.4589 51.9712 47.1245 50.3958 45.1675C48.9067 43.0948 46.3652 43.4952 45.1559 41.4172C42.9652 38.1373 42.2148 34.6334 37.4626 34.3449C35.3402 34.2138 33.401 34.6409 31.7454 36.0146C29.1054 38.1055 30.5352 41.6218 30.0045 44.3861C28.9929 47.3485 27.5812 52.0806 28.2006 55.8229C28.4062 57.3765 29.0284 58.8843 29.9778 60.1373C20.7356 59.7985 12.2406 54.6437 7.37176 46.6087C7.51314 46.0451 7.70251 45.4956 7.97678 44.9975C10.6602 40.2455 17.8027 42.9814 18.8572 47.7033C19.162 48.6719 20.6756 48.6734 20.963 47.6765C21.2939 46.6725 21.2928 45.5463 21.0013 44.4633C18.8646 37.4525 8.90381 38.3973 5.96348 43.9891C4.4724 40.8371 3.50611 37.3274 3.20711 33.5536C2.56468 26.5892 4.75615 20.348 8.62388 15.4073C8.94503 16.5354 9.35982 17.5669 9.59214 18.0864C10.2495 19.4581 11.136 20.7207 12.2376 21.7714C5.43217 29.6977 19.465 39.0209 20.5102 32.7776C20.2084 30.143 17.3387 31.5828 15.7444 30.3593C12.9302 28.6914 12.3174 24.8938 14.8706 22.6391C15.4962 22.1402 15.4569 21.1252 14.7791 20.6894C10.7008 17.8015 10.8811 14.7951 10.8756 12.8619C14.2671 9.4581 18.5165 6.87621 23.1075 5.37405C24.1096 6.17632 24.9927 7.03469 25.7428 8.08822C29.0677 12.3118 29.0714 18.9765 23.7648 21.5781C22.5057 22.225 24.5781 24.1424 24.0809 26.262C23.9355 27.7475 26.2001 27.832 26.1856 26.3294C26.3147 25.2138 26.1776 24.0566 25.8513 22.9827C32.3412 19.0863 33.1759 8.94413 27.0609 4.36654C34.4167 3.01315 42.2432 4.43262 48.6124 9.59136C49.2092 10.0332 49.8294 10.0612 50.3492 9.8473C61.5593 18.5664 62.1392 35.3127 56.1308 47.4183C55.5802 48.5188 56.9676 49.5219 57.8388 48.6505C68.2189 37.0621 63.2574 17.1416 51.5874 8.14051Z" fill="url(#paint1_linear_88_975)"/>
</g>
<defs>
<linearGradient id="paint0_linear_88_975" x1="44.6197" y1="15.4758" x2="44.6197" y2="37.5013" gradientUnits="userSpaceOnUse">
<stop stop-color="#73A8FF"/>
<stop offset="0.365" stop-color="#6FA7FF"/>
<stop offset="1" stop-color="#3C6CEC"/>
</linearGradient>
<linearGradient id="paint1_linear_88_975" x1="32" y1="0.570312" x2="32" y2="62.4292" gradientUnits="userSpaceOnUse">
<stop stop-color="#73A8FF"/>
<stop offset="0.365" stop-color="#6FA7FF"/>
<stop offset="1" stop-color="#3C6CEC"/>
</linearGradient>
<clipPath id="clip0_88_975">
<rect width="63" height="63" fill="white" transform="translate(0.5)"/>
</clipPath>
</defs>
</svg>
