<svg width="50" height="50" viewBox="0 0 50 50" fill="none" xmlns="http://www.w3.org/2000/svg">
<path d="M48.5352 28.2422H1.46484C0.655859 28.2422 0 28.898 0 29.707V33.0534C0 33.8624 0.655859 34.5183 1.46484 34.5183H48.5352C49.3441 34.5183 50 33.8624 50 33.0534V29.707C50 28.898 49.3441 28.2422 48.5352 28.2422ZM3.13799 48.5352C3.13799 49.3441 3.79385 50 4.60283 50H45.3971C46.2061 50 46.8619 49.3441 46.8619 48.5352V37.4479H3.13799V48.5352ZM27.2877 2.49714e-09H22.7123L21.4362 7.65625H28.5638L27.2877 2.49714e-09ZM18.4661 7.65625L19.7422 2.49714e-09H15.3193L11.4912 7.65625H18.4661ZM38.5087 7.65625L34.6806 2.49714e-09H30.2578L31.5339 7.65625H38.5087ZM12.0438 2.49714e-09H8.729C8.51427 -1.16314e-05 8.30216 0.0471945 8.10769 0.138275C7.91323 0.229355 7.74117 0.362081 7.60371 0.527051L1.6626 7.65625H8.21572L12.0438 2.49714e-09ZM48.3373 7.65625L42.3964 0.527051C42.2589 0.362078 42.0868 0.229352 41.8923 0.138272C41.6979 0.0471926 41.4857 -1.25359e-05 41.271 2.49714e-09L37.9561 2.49714e-09L41.7842 7.65625H48.3373ZM3.82812 18.2422C5.93896 18.2422 7.65625 16.5249 7.65625 14.4141V10.5859H0V14.4141C0 16.5249 1.71729 18.2422 3.82812 18.2422ZM10.5859 14.4141C10.5859 16.5249 12.3032 18.2422 14.4141 18.2422C16.5249 18.2422 18.2422 16.5249 18.2422 14.4141V10.5859H10.5859V14.4141ZM25 18.2422C27.1108 18.2422 28.8281 16.5249 28.8281 14.4141V10.5859H21.1719V14.4141C21.1719 16.5249 22.8892 18.2422 25 18.2422ZM31.7578 14.4141C31.7578 16.5249 33.4751 18.2422 35.5859 18.2422C37.6968 18.2422 39.4141 16.5249 39.4141 14.4141V10.5859H31.7578V14.4141ZM42.3438 10.5859V14.4141C42.3438 16.5249 44.061 18.2422 46.1719 18.2422C48.2827 18.2422 50 16.5249 50 14.4141V10.5859H42.3438ZM4.70703 25.3125H7.63672V19.992C6.76251 20.5922 5.75853 20.9768 4.70703 21.1143V25.3125ZM42.3633 19.992V25.3125H45.293V21.1143C44.2415 20.9769 43.2375 20.5923 42.3633 19.992Z" fill="#4F5D80" fill-opacity="0.25"/>
</svg>
