<svg width="51" height="50" viewBox="0 0 51 50" fill="none" xmlns="http://www.w3.org/2000/svg">
<path d="M44.1813 21.4374C43.4062 21.2562 42.5188 21.3374 41.6938 21.6812C40.8625 22.0249 40.175 22.5874 39.7563 23.2749C39.3063 24.0062 39.2125 24.8249 39.5 25.5187C39.7875 26.2124 40.4313 26.7249 41.2688 26.9249C41.5375 26.9937 41.8187 27.0249 42.1063 27.0249C42.65 27.0249 43.2188 26.9124 43.7625 26.6874C45.5688 25.9374 46.5313 24.2499 45.9563 22.8499C45.6688 22.1562 45.0187 21.6437 44.1813 21.4374ZM26.4313 39.7062C25.65 39.5187 24.7687 39.6062 23.9375 39.9499C23.1063 40.2937 22.425 40.8562 22.0063 41.5374C21.55 42.2749 21.4563 43.0937 21.7438 43.7874C22.1438 44.7499 23.1563 45.2937 24.3438 45.2937C24.875 45.2937 25.4438 45.1874 26.0063 44.9499C27.8188 44.2062 28.7812 42.5187 28.2 41.1124C27.9125 40.4187 27.2688 39.9062 26.4313 39.7062ZM9.53125 14.0437C10.0375 14.0437 10.5187 13.9187 10.9562 13.6687C12.625 12.7062 12.9563 10.1437 11.6937 7.96244C10.4313 5.77494 8.04375 4.78119 6.38125 5.74369C5.39375 6.31244 4.875 7.43744 4.875 8.71244C4.875 9.59994 5.125 10.5624 5.64375 11.4562C6.2375 12.4812 7.09375 13.2812 8.05625 13.7124C8.55 13.9312 9.05 14.0437 9.53125 14.0437ZM37.0062 38.4874C36.6313 39.1374 36.6187 39.9624 36.9688 40.7499C37.2938 41.4812 37.9 42.1312 38.6813 42.5812C39.3688 42.9812 40.0938 43.1749 40.7687 43.1749C41.75 43.1749 42.6062 42.7624 43.0562 41.9812C43.8187 40.6687 43.0812 38.8687 41.3875 37.8937C39.6875 36.9124 37.7687 37.1749 37.0062 38.4874ZM38.6688 8.81244C38.0687 8.36244 37.25 8.25619 36.425 8.51869C35.6625 8.76244 34.95 9.29369 34.4188 10.0124C33.8875 10.7374 33.5875 11.5749 33.5812 12.3749C33.575 13.2374 33.9187 13.9874 34.525 14.4312C34.9125 14.7187 35.3875 14.8624 35.8938 14.8624C36.175 14.8624 36.4688 14.8187 36.7687 14.7249C37.5312 14.4812 38.2438 13.9499 38.775 13.2249C39.3063 12.5062 39.6063 11.6687 39.6125 10.8687C39.6188 10.0062 39.275 9.25619 38.6688 8.81244ZM9.74375 25.3812L11.6063 26.4124C12.175 26.7249 12.7375 27.0687 12.8625 27.5374C12.9875 28.0312 12.6312 28.6062 12.25 29.2062C12.1687 29.3374 12.0875 29.4624 12.0125 29.5874C10.4812 32.1437 10.8375 35.5937 12.8375 37.6124C13.95 38.7312 15.4875 39.2937 17.0063 39.2937C18.4062 39.2937 19.7937 38.8124 20.8 37.8312C21.4062 37.2437 21.8625 36.5249 22.3062 35.8374C22.9625 34.7999 23.5875 33.8249 24.5812 33.4937C25.6875 33.1312 26.9375 33.7062 27.7875 34.2499C28.1313 34.4749 28.4688 34.7124 28.8 34.9499C29.55 35.4937 30.3312 36.0562 31.2437 36.4062C33.3125 37.2187 36.325 36.9437 37.8375 34.8499C38.4313 34.0249 38.1688 32.6687 37.7188 32.0562C37.3 31.4812 36.6562 31.0249 36.0437 30.5812C35.4312 30.1499 34.8 29.6999 34.5187 29.2124C33.9 28.1499 33.3062 26.9187 33.6 25.8124C33.7062 25.4124 33.9312 25.0312 34.1687 24.6249L34.2438 24.4999C34.3938 24.2374 34.7 23.8812 35.0187 23.5124C35.6938 22.7374 36.3875 21.9374 36.4813 21.1312C36.6437 19.8374 36.2062 18.5937 35.35 17.8874C34.4062 17.1062 33.25 17.0687 32.1313 17.0312C31.4438 17.0062 30.7875 16.9874 30.2188 16.7937C30.0125 16.7249 29.9688 16.6749 29.9625 16.6624C29.95 16.6499 29.9313 16.5999 29.9125 16.4187C29.8563 15.7999 29.9875 15.1562 30.2688 14.5999C30.35 14.4437 30.4375 14.2812 30.525 14.1187C31.0125 13.2312 31.5625 12.2249 31.2625 11.2562C31.0938 10.7062 30.6812 10.2624 30.0312 9.93744C29.4375 9.63119 28.3687 9.08744 27.2375 9.08744C26.4312 9.08744 25.5875 9.36244 24.8563 10.1937C24.1313 11.0187 23.7188 12.1874 23.6688 13.5874L23.6625 13.8249C23.65 14.3124 23.6375 14.7687 23.425 15.0562C23.0688 15.5437 22.15 15.4937 21.4437 15.3624C20.7187 15.2312 20 15.0562 19.2812 14.8437C18.975 14.7499 18.5938 14.6374 18.175 14.7062C17.875 14.7562 17.5812 14.8937 17.3062 15.1187C16.3687 15.8812 16.075 17.2812 16.6438 18.3062C16.8562 18.6874 17.1562 18.9749 17.4187 19.2312L17.55 19.3687C18.0438 19.8624 18.6125 20.6062 18.5062 21.3437C18.4437 21.7874 18.1438 22.0812 17.9062 22.2499C17.3813 22.6187 16.625 22.7624 15.9688 22.6249C14.975 22.4124 14.1 21.7937 13.1813 21.1437C12.9688 20.9874 12.7562 20.8374 12.5375 20.6874C11.8063 20.1874 10.9187 19.6687 9.89375 19.5812C8.675 19.4812 7.5375 20.0937 7.125 21.0749C6.75625 21.9374 6.98125 23.0437 7.6875 23.8812C8.26875 24.5749 9.05 25.0062 9.74375 25.3812ZM19.5063 11.5437C19.7563 11.5437 20.0063 11.4999 20.25 11.4124C20.9563 11.1624 21.5 10.5437 21.7438 9.71869C21.9688 8.94994 21.925 8.06244 21.625 7.21869C21.325 6.36869 20.7937 5.65619 20.1375 5.20619C19.425 4.71869 18.6125 4.58119 17.9 4.83744C17.1938 5.08744 16.65 5.70619 16.4062 6.53119C16.1813 7.29994 16.225 8.18744 16.525 9.03119C17.0687 10.5624 18.2875 11.5437 19.5063 11.5437Z" fill="url(#paint0_linear_88_992)"/>
<defs>
<linearGradient id="paint0_linear_88_992" x1="25.4987" y1="4.71082" x2="25.4987" y2="45.2937" gradientUnits="userSpaceOnUse">
<stop stop-color="#73A8FF"/>
<stop offset="0.365" stop-color="#6FA7FF"/>
<stop offset="1" stop-color="#3C6CEC"/>
</linearGradient>
</defs>
</svg>
