<svg width="51" height="50" viewBox="0 0 51 50" fill="none" xmlns="http://www.w3.org/2000/svg">
<g clip-path="url(#clip0_88_1000)">
<path d="M49.0208 0H1.97881C1.16211 0 0.5 0.662109 0.5 1.47881V48.5208C0.5 49.3375 1.16211 49.9996 1.97881 49.9996H19.2793C19.2827 49.9996 19.2862 50 19.2897 50C19.2924 50 19.2951 49.9996 19.2978 49.9996H49.0208C49.8375 49.9996 50.4996 49.3375 50.4996 48.5208V1.47881C50.4996 0.662109 49.8375 0 49.0208 0ZM47.5419 28.7397L44.2689 30.9052L41.6816 26.9504C41.2345 26.2669 40.3178 26.0756 39.6345 26.5225C38.951 26.9696 38.7594 27.8861 39.2065 28.5696L41.8022 32.5372L37.8536 35.1496C37.1725 35.6003 36.9855 36.5177 37.4363 37.1988C37.7208 37.6289 38.1913 37.8619 38.6709 37.8619C38.9511 37.8619 39.2345 37.7823 39.4855 37.6162L47.542 32.286V47.042H20.279L17.1836 39.5333L23.2953 35.2299C23.9632 34.7597 24.1232 33.8371 23.6531 33.1694C23.183 32.5017 22.2603 32.3415 21.5927 32.8116L16.028 36.7299L14.6789 33.4572C14.3677 32.7021 13.5031 32.3423 12.7481 32.6536C11.9931 32.9649 11.6332 33.8294 11.9445 34.5845L14.0099 39.5944L14.0102 39.5952L17.0801 47.0421H3.45762V21.6827L14.1348 15.063L20.7408 18.4326L20.7489 18.4367L28.0815 22.1769C28.2892 22.2832 28.5191 22.3386 28.7523 22.3387C29.2905 22.3387 29.8096 22.0438 30.0708 21.5314C30.4419 20.8039 30.1529 19.9134 29.4254 19.5422L23.6195 16.5809L24.8751 14.8458H29.2463C30.063 14.8458 30.7251 14.1837 30.7251 13.367C30.7251 12.5503 30.063 11.8882 29.2463 11.8882H24.1198C23.6454 11.8882 23.1999 12.1157 22.9218 12.5L20.9528 15.2207L14.7358 12.0496C14.5092 11.934 14.2566 11.8789 14.0024 11.8894C13.7482 11.9 13.501 11.976 13.2848 12.1101L3.45752 18.2027V2.95762H35.7958L39.3197 8.93106L37.9363 12.0825C37.608 12.8303 37.948 13.7027 38.6959 14.031C38.8829 14.1134 39.0851 14.156 39.2894 14.1562C39.8584 14.1562 40.4008 13.8258 40.6442 13.2714L42.3321 9.42647C42.4263 9.21185 42.4682 8.97791 42.4543 8.74393C42.4403 8.50996 42.3709 8.28266 42.2519 8.08076L39.2296 2.95762H47.5418V28.7397H47.5419Z" fill="url(#paint0_linear_88_1000)"/>
</g>
<defs>
<linearGradient id="paint0_linear_88_1000" x1="25.4998" y1="0" x2="25.4998" y2="50" gradientUnits="userSpaceOnUse">
<stop stop-color="#73A8FF"/>
<stop offset="0.365" stop-color="#6FA7FF"/>
<stop offset="1" stop-color="#3C6CEC"/>
</linearGradient>
<clipPath id="clip0_88_1000">
<rect width="50" height="50" fill="white" transform="translate(0.5)"/>
</clipPath>
</defs>
</svg>
