<svg width="32" height="32" viewBox="0 0 32 32" fill="none" xmlns="http://www.w3.org/2000/svg">
<rect width="32" height="32" rx="16" fill="white"/>
<path d="M14.5946 21.1774C10.9615 21.1774 8.00586 18.2217 8.00586 14.5887C8.00586 10.9557 10.9615 8 14.5946 8C18.2276 8 21.1833 10.9557 21.1833 14.5887C21.1833 18.2217 18.2276 21.1774 14.5946 21.1774ZM14.5946 9.24904C11.6503 9.24904 9.2549 11.6444 9.2549 14.5887C9.2549 17.533 11.6503 19.9284 14.5946 19.9284C17.5389 19.9284 19.9342 17.533 19.9342 14.5887C19.9342 11.6444 17.5389 9.24904 14.5946 9.24904ZM23.8107 23.8171C24.0546 23.5732 24.0546 23.1777 23.8107 22.9338L21.016 20.1391C20.7721 19.8952 20.3766 19.8952 20.1328 20.1391C19.8889 20.383 19.8889 20.7785 20.1328 21.0223L22.9275 23.8171C23.0494 23.939 23.2093 24 23.3691 24C23.529 24 23.6888 23.939 23.8107 23.8171Z" fill="#4F5D80"/>
</svg>
