<svg width="25" height="25" viewBox="0 0 25 25" fill="none" xmlns="http://www.w3.org/2000/svg">
<rect width="25" height="25" rx="12.5" fill="url(#paint0_linear_110_17326)"/>
<path d="M17.1081 8.09044C17.1081 9.02873 16.3476 9.78937 15.4093 9.78937C14.471 9.78937 13.7104 9.02873 13.7104 8.09044C13.7104 7.15225 14.471 6.3916 15.4093 6.3916C16.3476 6.3916 17.1081 7.15225 17.1081 8.09044Z" fill="white"/>
<path d="M15.4092 10.1819C14.2561 10.1819 13.3184 9.24406 13.3184 8.09088C13.3184 6.9378 14.2561 6 15.4092 6C16.5624 6 17.5001 6.9378 17.5001 8.09088C17.5001 9.24406 16.5624 10.1819 15.4092 10.1819ZM15.4092 6.78409C14.6884 6.78409 14.1025 7.37064 14.1025 8.09088C14.1025 8.81122 14.6884 9.39777 15.4092 9.39777C16.1301 9.39777 16.716 8.81122 16.716 8.09088C16.716 7.37064 16.1301 6.78409 15.4092 6.78409ZM17.1081 16.4546C17.1081 17.3928 16.3475 18.1534 15.4092 18.1534C14.471 18.1534 13.7104 17.3928 13.7104 16.4546C13.7104 15.5163 14.471 14.7557 15.4092 14.7557C16.3475 14.7557 17.1081 15.5163 17.1081 16.4546Z" fill="white"/>
<path d="M15.4092 18.5458C14.256 18.5458 13.3183 17.608 13.3183 16.4549C13.3183 15.3017 14.256 14.3639 15.4092 14.3639C16.5623 14.3639 17.5 15.3017 17.5 16.4549C17.5 17.608 16.5623 18.5458 15.4092 18.5458ZM15.4092 15.148C14.6883 15.148 14.1024 15.7346 14.1024 16.4549C14.1024 17.1752 14.6883 17.7617 15.4092 17.7617C16.13 17.7617 16.7159 17.1752 16.7159 16.4549C16.7159 15.7346 16.13 15.148 15.4092 15.148ZM9.78986 12.2731C9.78986 13.2113 9.02922 13.9719 8.09093 13.9719C7.15273 13.9719 6.39209 13.2113 6.39209 12.2731C6.39209 11.3348 7.15273 10.5742 8.09093 10.5742C9.02922 10.5742 9.78986 11.3348 9.78986 12.2731Z" fill="white"/>
<path d="M8.09088 14.3634C6.9378 14.3634 6 13.4257 6 12.2725C6 11.1194 6.9378 10.1816 8.09088 10.1816C9.24406 10.1816 10.1819 11.1194 10.1819 12.2725C10.1819 13.4257 9.24406 14.3634 8.09088 14.3634ZM8.09088 10.9657C7.37006 10.9657 6.78409 11.5522 6.78409 12.2725C6.78409 12.9929 7.37006 13.5793 8.09088 13.5793C8.81181 13.5793 9.39777 12.9929 9.39777 12.2725C9.39777 11.5522 8.81181 10.9657 8.09088 10.9657Z" fill="white"/>
<path d="M9.32525 12.0223C9.14329 12.0223 8.9666 11.9276 8.87043 11.7583C8.7277 11.5079 8.81557 11.1885 9.06596 11.0452L13.9163 8.28005C14.1667 8.13629 14.4861 8.22415 14.6293 8.47551C14.7721 8.72588 14.6842 9.0453 14.4338 9.18856L9.58339 11.9538C9.50479 11.9987 9.4158 12.0224 9.32525 12.0223ZM14.1751 16.3348C14.0872 16.3348 13.9984 16.3128 13.9169 16.2663L9.06648 13.5011C8.81606 13.3584 8.72831 13.039 8.87102 12.788C9.01313 12.5371 9.33304 12.4488 9.584 12.5926L14.4344 15.3578C14.6848 15.5005 14.7726 15.8199 14.6299 16.0708C14.5332 16.2401 14.3565 16.3348 14.1751 16.3348H14.1751Z" fill="white"/>
<defs>
<linearGradient id="paint0_linear_110_17326" x1="12.5" y1="0" x2="12.5" y2="25" gradientUnits="userSpaceOnUse">
<stop stop-color="#73A8FF"/>
<stop offset="0.365" stop-color="#6FA7FF"/>
<stop offset="1" stop-color="#3C6CEC"/>
</linearGradient>
</defs>
</svg>
