<svg width="16" height="14" viewBox="0 0 16 14" fill="none" xmlns="http://www.w3.org/2000/svg">
<path fill-rule="evenodd" clip-rule="evenodd" d="M8.47082 10.53L11.4708 13.53C11.6114 13.6705 11.8021 13.7493 12.0008 13.7493C12.1996 13.7493 12.3902 13.6705 12.5308 13.53L15.5308 10.53C15.6045 10.4613 15.6636 10.3785 15.7046 10.2865C15.7456 10.1945 15.7676 10.0952 15.7694 9.99452C15.7712 9.89382 15.7527 9.79379 15.7149 9.7004C15.6772 9.60701 15.6211 9.52218 15.5499 9.45096C15.4786 9.37974 15.3938 9.3236 15.3004 9.28588C15.207 9.24816 15.107 9.22963 15.0063 9.23141C14.9056 9.23318 14.8063 9.25523 14.7143 9.29622C14.6223 9.33721 14.5395 9.39631 14.4708 9.47L12.7508 11.19V1C12.7508 0.801088 12.6718 0.610322 12.5312 0.46967C12.3905 0.329018 12.1997 0.25 12.0008 0.25C11.8019 0.25 11.6111 0.329018 11.4705 0.46967C11.3298 0.610322 11.2508 0.801088 11.2508 1V11.19L9.53082 9.47C9.46216 9.39631 9.37936 9.33721 9.28736 9.29622C9.19536 9.25523 9.09605 9.23318 8.99535 9.23141C8.89464 9.22963 8.79461 9.24816 8.70123 9.28588C8.60784 9.3236 8.523 9.37974 8.45179 9.45096C8.38057 9.52218 8.32442 9.60701 8.2867 9.7004C8.24898 9.79379 8.23045 9.89382 8.23223 9.99452C8.23401 10.0952 8.25605 10.1945 8.29704 10.2865C8.33803 10.3785 8.39714 10.4613 8.47082 10.53ZM4.53082 0.47C4.3902 0.329549 4.19957 0.25066 4.00082 0.25066C3.80207 0.25066 3.61145 0.329549 3.47082 0.47L0.470823 3.47C0.338343 3.61218 0.26622 3.80022 0.269648 3.99452C0.273076 4.18882 0.351788 4.37421 0.489201 4.51162C0.626614 4.64903 0.811999 4.72775 1.0063 4.73118C1.2006 4.7346 1.38865 4.66248 1.53082 4.53L3.25082 2.81V13C3.25082 13.1989 3.32984 13.3897 3.47049 13.5303C3.61115 13.671 3.80191 13.75 4.00082 13.75C4.19974 13.75 4.3905 13.671 4.53115 13.5303C4.6718 13.3897 4.75082 13.1989 4.75082 13V2.81L6.47082 4.53C6.53949 4.60369 6.62229 4.66279 6.71428 4.70378C6.80628 4.74477 6.9056 4.76682 7.0063 4.76859C7.107 4.77037 7.20703 4.75184 7.30042 4.71412C7.39381 4.6764 7.47864 4.62026 7.54986 4.54904C7.62108 4.47782 7.67722 4.39299 7.71495 4.2996C7.75267 4.20621 7.77119 4.10618 7.76941 4.00548C7.76764 3.90478 7.7456 3.80546 7.7046 3.71346C7.66361 3.62146 7.60451 3.53866 7.53082 3.47L4.53082 0.47Z" fill="url(#paint0_linear_375_14911)"/>
<defs>
<linearGradient id="paint0_linear_375_14911" x1="0.269531" y1="-14.7174" x2="24.6981" y2="-5.42801" gradientUnits="userSpaceOnUse">
<stop stop-color="#243057"/>
<stop offset="1" stop-color="#374255"/>
</linearGradient>
</defs>
</svg>
