<svg width="35" height="36" viewBox="0 0 35 36" fill="none" xmlns="http://www.w3.org/2000/svg">
<g clip-path="url(#clip0_88_811)">
<path d="M19.2572 12.8774L17.4998 9.31702L15.7426 12.8773C15.669 13.0264 15.5603 13.1553 15.4258 13.253C15.2913 13.3507 15.1351 13.4143 14.9706 13.4382L11.042 14.0091L13.885 16.7802C14.004 16.8963 14.0931 17.0395 14.1444 17.1976C14.1958 17.3557 14.208 17.5239 14.1799 17.6878L13.5089 21.6005L17.0226 19.7532C17.1698 19.6759 17.3335 19.6355 17.4998 19.6355C17.666 19.6355 17.8298 19.6759 17.9769 19.7532L21.4909 21.6005L20.8196 17.6879C20.7914 17.524 20.8035 17.3558 20.8549 17.1977C20.9063 17.0395 20.9953 16.8963 21.1144 16.7802L23.9574 14.0091L20.0292 13.4382C19.8647 13.4143 19.7085 13.3507 19.574 13.253C19.4395 13.1553 19.3308 13.0264 19.2572 12.8774Z" fill="url(#paint0_linear_88_811)"/>
<path d="M31.2288 0.483398H3.77111C1.69176 0.483398 0 2.17509 0 4.25451V27.319C0 29.3984 1.69176 31.0901 3.77111 31.0901H12.682L16.7748 35.183C16.9671 35.3753 17.228 35.4833 17.4999 35.4833C17.7718 35.4833 18.0327 35.3753 18.225 35.183L22.3178 31.0901H31.2288C33.3082 31.0901 35 29.3984 35 27.319V4.25451C35 2.17509 33.3082 0.483398 31.2288 0.483398ZM26.8769 14.0274L22.9322 17.8724L23.8543 23.2458C23.8712 23.3194 23.88 23.3961 23.88 23.4749C23.88 24.0403 23.4224 24.4989 22.8573 24.5003H22.8531C22.6899 24.5003 22.5261 24.4614 22.3761 24.3825L17.5 21.8192L12.6244 24.3825C12.455 24.4715 12.2642 24.5114 12.0733 24.4976C11.8825 24.4838 11.6994 24.4168 11.5446 24.3044C11.3898 24.1919 11.2696 24.0384 11.1975 23.8612C11.1254 23.684 11.1043 23.4901 11.1366 23.3016L12.0676 17.8724L8.12294 14.0274C7.98586 13.8939 7.88889 13.7246 7.84299 13.5389C7.79709 13.3531 7.8041 13.1582 7.86323 12.9762C7.92235 12.7942 8.03123 12.6324 8.17754 12.5091C8.32386 12.3858 8.50177 12.3059 8.69114 12.2784L14.1423 11.4862L16.5804 6.5464C16.6651 6.3748 16.796 6.23031 16.9585 6.12927C17.121 6.02823 17.3085 5.97468 17.4999 5.97468C17.6912 5.97467 17.8787 6.02821 18.0412 6.12923C18.2037 6.23025 18.3347 6.37473 18.4194 6.54633L20.8577 11.4862L26.3085 12.2784C26.4979 12.3059 26.6757 12.3858 26.822 12.5092C26.9683 12.6325 27.0771 12.7943 27.1362 12.9763C27.1954 13.1582 27.2025 13.3531 27.1567 13.5389C27.1109 13.7247 27.014 13.8939 26.8769 14.0274Z" fill="url(#paint1_linear_88_811)"/>
</g>
<defs>
<linearGradient id="paint0_linear_88_811" x1="17.4997" y1="9.31702" x2="17.4997" y2="21.6005" gradientUnits="userSpaceOnUse">
<stop stop-color="#73A8FF"/>
<stop offset="0.365" stop-color="#6FA7FF"/>
<stop offset="1" stop-color="#3C6CEC"/>
</linearGradient>
<linearGradient id="paint1_linear_88_811" x1="17.5" y1="0.483398" x2="17.5" y2="35.4833" gradientUnits="userSpaceOnUse">
<stop stop-color="#73A8FF"/>
<stop offset="0.365" stop-color="#6FA7FF"/>
<stop offset="1" stop-color="#3C6CEC"/>
</linearGradient>
<clipPath id="clip0_88_811">
<rect width="35" height="35" fill="white" transform="translate(0 0.483398)"/>
</clipPath>
</defs>
</svg>
