<svg width="21" height="18" viewBox="0 0 21 18" fill="none" xmlns="http://www.w3.org/2000/svg">
<path d="M0.462691 8.87421L5.29269 10.5145L16.7609 3.50346C16.9274 3.40221 17.0977 3.62796 16.9544 3.75996L8.27244 11.7512L7.94994 16.225C7.94467 16.2999 7.96231 16.3747 8.00052 16.4394C8.03872 16.504 8.09569 16.5556 8.16386 16.5872C8.23203 16.6187 8.30819 16.6288 8.38223 16.6161C8.45628 16.6034 8.5247 16.5685 8.57844 16.516L11.2514 13.8872L16.1384 17.5862C16.6649 17.9852 17.4277 17.704 17.5694 17.059L20.9722 1.60896C21.1664 0.727712 20.3024 -0.0162883 19.4602 0.306212L0.43869 7.59021C-0.15831 7.81896 -0.14181 8.66871 0.462691 8.87421Z" fill="url(#paint0_linear_1_29)"/>
<defs>
<linearGradient id="paint0_linear_1_29" x1="10.4999" y1="0.229492" x2="10.4999" y2="17.7707" gradientUnits="userSpaceOnUse">
<stop stop-color="#73A8FF"/>
<stop offset="0.365" stop-color="#6FA7FF"/>
<stop offset="1" stop-color="#3C6CEC"/>
</linearGradient>
</defs>
</svg>
