<svg width="17" height="16" viewBox="0 0 17 16" fill="none" xmlns="http://www.w3.org/2000/svg">
<path d="M9.63373 14.5416C9.50109 14.5746 9.36746 14.6036 9.23304 14.6284C8.88337 14.6934 8.6522 15.0297 8.71688 15.3797C8.74741 15.5452 8.84166 15.6921 8.97937 15.7889C9.04951 15.8384 9.12887 15.8734 9.21276 15.8918C9.29665 15.9101 9.38337 15.9114 9.46779 15.8957C9.62792 15.866 9.78712 15.8314 9.94515 15.792C10.2904 15.7061 10.5008 15.3563 10.4147 15.0112C10.3287 14.6658 9.97923 14.4556 9.63373 14.5416ZM14.3989 5.90445C14.4422 6.03537 14.5264 6.1489 14.6391 6.22827C14.8005 6.34195 15.0117 6.38019 15.2132 6.31355C15.5511 6.20136 15.7342 5.83702 15.6224 5.49931C15.5712 5.34472 15.5153 5.19174 15.4548 5.04056C15.3226 4.71012 14.9478 4.54924 14.6171 4.68142C14.2869 4.81352 14.1259 5.18845 14.2582 5.51899C14.309 5.64601 14.356 5.77456 14.3989 5.90445ZM11.7276 13.6215C11.6134 13.697 11.497 13.7689 11.3784 13.8373C11.0701 14.0151 10.9645 14.4093 11.1423 14.7175C11.1889 14.7985 11.2525 14.8684 11.3289 14.9222C11.5277 15.0621 11.7976 15.0831 12.0224 14.9536C12.1635 14.8722 12.3021 14.7866 12.438 14.6968C12.7348 14.5007 12.8165 14.1009 12.6203 13.804C12.4242 13.5069 12.0245 13.4253 11.7276 13.6215ZM16.023 7.70419C16.009 7.34853 15.7095 7.0717 15.3537 7.08559C14.9984 7.09961 14.7213 7.39928 14.7353 7.7548C14.7406 7.89073 14.742 8.0287 14.7389 8.16449C14.7339 8.38753 14.843 8.58634 15.0125 8.70584C15.117 8.7795 15.2411 8.8203 15.369 8.82303C15.7246 8.83092 16.0194 8.54882 16.0272 8.19299C16.0308 8.03073 16.0295 7.86634 16.023 7.70419ZM14.2938 11.9264C14.0086 11.7124 13.6051 11.7705 13.3915 12.0552C13.3094 12.1646 13.224 12.2714 13.1353 12.3756C12.9048 12.6464 12.9374 13.0532 13.2082 13.2839C13.2237 13.297 13.2393 13.309 13.2555 13.3203C13.5247 13.5101 13.8989 13.4665 14.1166 13.211C14.2224 13.0867 14.3244 12.9591 14.4224 12.8285C14.636 12.5438 14.5782 12.1401 14.2938 11.9264ZM15.241 9.59702C14.9014 9.49055 14.5398 9.67958 14.4334 10.0191C14.3924 10.1497 14.3475 10.279 14.2988 10.4069C14.1918 10.6879 14.2943 10.9971 14.5293 11.1628C14.5734 11.1938 14.6211 11.2192 14.6715 11.2383C15.004 11.3652 15.3763 11.1984 15.503 10.8657C15.5609 10.7137 15.6143 10.5599 15.6631 10.4047C15.7694 10.065 15.5805 9.70349 15.241 9.59702ZM6.82235 14.6342C6.25086 14.532 5.6952 14.3554 5.16954 14.1089C5.16334 14.1057 5.15779 14.102 5.15128 14.099C5.02741 14.0408 4.90526 13.979 4.785 13.9136C4.78459 13.9131 4.78383 13.9128 4.78318 13.9125C4.56229 13.7908 4.34827 13.6571 4.14208 13.5119C1.11087 11.3766 0.382041 7.17331 2.51745 4.14214C2.98179 3.48326 3.54371 2.93357 4.17016 2.4979C4.17788 2.49253 4.1856 2.48719 4.19325 2.48178C6.40077 0.960729 9.39825 0.858221 11.7423 2.42124L11.2389 3.14865C11.0989 3.35112 11.185 3.49866 11.43 3.47661L13.6169 3.28083C13.8622 3.25877 14.0089 3.04656 13.9429 2.80963L13.3557 0.693794C13.2899 0.456595 13.1216 0.428203 12.9815 0.630635L12.4769 1.35977C10.7567 0.205028 8.69348 -0.235292 6.64562 0.119817C6.44063 0.155386 6.23708 0.198833 6.03543 0.250063C6.03388 0.250339 6.03264 0.250511 6.0314 0.250786C6.02365 0.252682 6.01579 0.255197 6.00824 0.257299C4.24235 0.710781 2.70162 1.74072 1.60222 3.21023C1.59295 3.22122 1.5834 3.23197 1.57465 3.24392C1.53792 3.29348 1.5018 3.34348 1.46629 3.39391C1.40796 3.47675 1.35123 3.5607 1.29614 3.64572C1.28928 3.65592 1.28404 3.66629 1.27805 3.67659C0.370808 5.08246 -0.0667899 6.70777 0.00825651 8.36244C0.00842879 8.36789 0.00811868 8.37337 0.00825651 8.37895C0.0157026 8.54158 0.0282049 8.70393 0.0457452 8.86579C0.0466756 8.87619 0.0489842 8.88605 0.0507414 8.89645C0.0686574 9.05959 0.0916164 9.22213 0.119586 9.38384C0.407091 11.0425 1.18953 12.5351 2.36198 13.6964C2.36471 13.6991 2.36753 13.7021 2.37029 13.7049C2.37125 13.706 2.37232 13.7066 2.37325 13.7076C2.69126 14.0213 3.03461 14.3082 3.39982 14.5655C4.36529 15.2458 5.44037 15.6955 6.59494 15.9026C6.94526 15.9656 7.2799 15.7324 7.34275 15.3822C7.40556 15.0319 7.17257 14.6969 6.82235 14.6342Z" fill="#335EC3"/>
<path d="M7.61922 2.80859C7.33106 2.80859 7.09766 3.04221 7.09766 3.32996V8.52418L11.8482 10.9799C11.922 11.0182 12.0039 11.0382 12.0871 11.0382C12.2758 11.0382 12.458 10.9354 12.5506 10.7561C12.6828 10.5003 12.5828 10.1859 12.3269 10.0538L8.14021 7.88928V3.32996C8.14017 3.04221 7.90704 2.80859 7.61922 2.80859Z" fill="#335EC3"/>
</svg>
