<svg width="22" height="18" viewBox="0 0 22 18" fill="none" xmlns="http://www.w3.org/2000/svg">
<path d="M20.75 15.7502H19.25V6.75023C19.25 6.3524 19.092 5.97087 18.8107 5.68957C18.5294 5.40827 18.1478 5.25023 17.75 5.25023H16.25C15.8522 5.25023 15.4706 5.40827 15.1893 5.68957C14.908 5.97087 14.75 6.3524 14.75 6.75023V15.7502H13.25V9.00023C13.25 8.6024 13.092 8.22087 12.8107 7.93957C12.5294 7.65826 12.1478 7.50023 11.75 7.50023H10.25C9.85218 7.50023 9.47064 7.65826 9.18934 7.93957C8.90804 8.22087 8.75 8.6024 8.75 9.00023V15.7502H7.25V11.2502C7.25 10.8524 7.09196 10.4709 6.81066 10.1896C6.52936 9.90826 6.14782 9.75023 5.75 9.75023H4.25C3.85218 9.75023 3.47064 9.90826 3.18934 10.1896C2.90804 10.4709 2.75 10.8524 2.75 11.2502V15.7502H1.25C1.05109 15.7502 0.860322 15.8292 0.71967 15.9699C0.579018 16.1105 0.5 16.3013 0.5 16.5002C0.5 16.6991 0.579018 16.8899 0.71967 17.0306C0.860322 17.1712 1.05109 17.2502 1.25 17.2502H20.75C20.9489 17.2502 21.1397 17.1712 21.2803 17.0306C21.421 16.8899 21.5 16.6991 21.5 16.5002C21.5 16.3013 21.421 16.1105 21.2803 15.9699C21.1397 15.8292 20.9489 15.7502 20.75 15.7502ZM2.75 8.25023C2.83857 8.25017 2.92642 8.23443 3.0095 8.20373L17.0465 3.03923L16.8657 3.42398C16.8239 3.51316 16.8001 3.60971 16.7956 3.7081C16.7911 3.8065 16.806 3.90482 16.8395 3.99744C16.873 4.09007 16.9244 4.17519 16.9908 4.24795C17.0572 4.3207 17.1373 4.37967 17.2265 4.42148C17.3157 4.46329 17.4122 4.48712 17.5106 4.49162C17.609 4.49612 17.7073 4.48119 17.8 4.44769C17.8926 4.41419 17.9777 4.36278 18.0505 4.29638C18.1232 4.22999 18.1822 4.14991 18.224 4.06073L19.1788 2.02523C19.2206 1.93605 19.2444 1.8395 19.2489 1.7411C19.2534 1.64271 19.2385 1.54439 19.205 1.45176C19.1715 1.35913 19.1201 1.27401 19.0537 1.20125C18.9873 1.1285 18.9072 1.06953 18.818 1.02773L16.7803 0.0707297C16.6 -0.0136091 16.3937 -0.0229037 16.2066 0.0448907C16.0196 0.112685 15.8671 0.252015 15.7828 0.43223C15.6984 0.612445 15.6891 0.818781 15.7569 1.00585C15.8247 1.19292 15.964 1.34539 16.1442 1.42973L16.5545 1.62173L2.4905 6.79673C2.32544 6.85773 2.18708 6.97482 2.09964 7.12752C2.01219 7.28023 1.98122 7.45882 2.01215 7.63205C2.04308 7.80528 2.13393 7.96212 2.26882 8.07512C2.4037 8.18813 2.57403 8.25012 2.75 8.25023Z" fill="#335EC3"/>
</svg>
