<svg width="25" height="15" viewBox="0 0 25 15" fill="none" xmlns="http://www.w3.org/2000/svg">
<path d="M24.8675 13.2508C24.8372 13.1855 24.809 13.1314 24.7828 13.0881C24.349 12.3069 23.5201 11.348 22.2966 10.2112L22.2708 10.1852L22.2578 10.1724L22.2447 10.1593H22.2316C21.6763 9.62995 21.3247 9.27403 21.1774 9.0918C20.908 8.74467 20.8476 8.39331 20.9949 8.03729C21.0989 7.7683 21.4897 7.20024 22.1664 6.33234C22.5223 5.87237 22.8042 5.50373 23.0123 5.22599C24.5137 3.23003 25.1646 1.95458 24.9649 1.39915L24.8873 1.26936C24.8352 1.19121 24.7007 1.11973 24.4841 1.05453C24.2669 0.989475 23.9893 0.978716 23.6507 1.02207L19.9021 1.04797C19.8414 1.02645 19.7547 1.02846 19.6417 1.05453L19.4724 1.0937L19.4072 1.12629L19.3554 1.16546C19.312 1.19135 19.2642 1.2369 19.2121 1.302C19.1603 1.36688 19.1169 1.44301 19.0823 1.52977C18.6742 2.57977 18.2101 3.556 17.6894 4.45842C17.3683 4.99653 17.0734 5.46288 16.8041 5.85774C16.5351 6.25246 16.3095 6.54328 16.1274 6.7297C15.9451 6.91631 15.7805 7.0658 15.6327 7.17873C15.4851 7.2917 15.3724 7.33943 15.2944 7.32197C15.2162 7.30451 15.1426 7.28719 15.0729 7.26986C14.9515 7.19172 14.8538 7.08545 14.7802 6.95095C14.7063 6.81646 14.6565 6.64718 14.6305 6.44326C14.6046 6.23919 14.5892 6.06367 14.5849 5.91609C14.5808 5.7687 14.5827 5.56021 14.5915 5.29123C14.6005 5.02211 14.6046 4.84002 14.6046 4.74455C14.6046 4.41475 14.611 4.05681 14.6239 3.67066C14.637 3.28451 14.6476 2.97855 14.6565 2.75315C14.6654 2.52752 14.6695 2.28881 14.6695 2.03715C14.6695 1.78549 14.6542 1.58813 14.6239 1.44488C14.5936 1.30151 14.5479 1.16184 14.4876 1.02832C14.4267 0.893826 14.3376 0.789789 14.2207 0.715932C14.1036 0.642166 13.958 0.583627 13.7847 0.540134C13.3247 0.436051 12.739 0.379746 12.0273 0.370993C10.4134 0.353668 9.37631 0.457888 8.91639 0.683516C8.73417 0.778847 8.56927 0.909099 8.42183 1.07386C8.26559 1.26484 8.24379 1.36906 8.35658 1.38621C8.87732 1.46421 9.24597 1.65081 9.46293 1.94583L9.54112 2.10216C9.60194 2.21495 9.66267 2.41464 9.72344 2.70095C9.78412 2.98726 9.82328 3.30398 9.84052 3.65092C9.88383 4.28449 9.88383 4.82684 9.84052 5.27801C9.79707 5.72935 9.75603 6.08072 9.71687 6.33238C9.67771 6.58404 9.61917 6.78797 9.54112 6.94412C9.46293 7.10031 9.41091 7.19578 9.38484 7.23043C9.3588 7.26508 9.3371 7.28691 9.31987 7.29548C9.20772 7.33871 9.08855 7.36083 8.96837 7.36072C8.84678 7.36072 8.69934 7.29991 8.52582 7.17836C8.35234 7.05682 8.17231 6.88986 7.9857 6.67723C7.7991 6.46455 7.58866 6.16734 7.35427 5.78557C7.12008 5.40379 6.87708 4.95258 6.62542 4.43194L6.4172 4.05435C6.28704 3.81145 6.10924 3.45775 5.88361 2.99359C5.65785 2.52925 5.4583 2.0801 5.28482 1.64621C5.21548 1.46398 5.11131 1.32525 4.97248 1.22978L4.90733 1.19062C4.86402 1.15597 4.7945 1.11918 4.69912 1.07997C4.60282 1.04061 4.50239 1.01226 4.39973 0.995448L0.833215 1.02134C0.468763 1.02134 0.221479 1.10391 0.0912725 1.26881L0.0391624 1.34681C0.0131301 1.39026 0 1.45965 0 1.55516C0 1.65063 0.0260323 1.7678 0.0781424 1.90653C0.598788 3.13018 1.16498 4.3103 1.77671 5.44706C2.38845 6.58381 2.92004 7.4995 3.37116 8.1933C3.82237 8.8876 4.28228 9.54288 4.75091 10.1588C5.21954 10.775 5.52974 11.1698 5.68151 11.3433C5.83346 11.5171 5.95282 11.647 6.03958 11.7338L6.36505 12.0461C6.57331 12.2544 6.87913 12.5039 7.28265 12.7945C7.68627 13.0854 8.1331 13.3717 8.62338 13.6539C9.11375 13.9357 9.68423 14.1657 10.3351 14.3435C10.9859 14.5216 11.6194 14.593 12.2355 14.5585H13.7325C14.036 14.5323 14.266 14.4369 14.4224 14.2721L14.4742 14.2068C14.509 14.1551 14.5416 14.0746 14.5717 13.9663C14.6021 13.8578 14.6173 13.7384 14.6173 13.6084C14.6084 13.2353 14.6368 12.8991 14.7017 12.5997C14.7666 12.3005 14.8405 12.0748 14.9232 11.9229C15.0059 11.7711 15.0992 11.643 15.203 11.5391C15.307 11.435 15.3811 11.372 15.4246 11.3503C15.4679 11.3284 15.5024 11.3136 15.5284 11.3047C15.7367 11.2353 15.9818 11.3025 16.2641 11.5066C16.5461 11.7106 16.8107 11.9624 17.0582 12.2616C17.3055 12.5612 17.6026 12.8972 17.9497 13.2703C18.2969 13.6435 18.6006 13.9209 18.8608 14.1034L19.121 14.2596C19.2948 14.3638 19.5205 14.4593 19.7982 14.546C20.0754 14.6328 20.3183 14.6545 20.5269 14.6111L23.859 14.5591C24.1886 14.5591 24.445 14.5046 24.6269 14.3963C24.8092 14.2878 24.9175 14.1683 24.9524 14.0383C24.9872 13.9082 24.9891 13.7606 24.959 13.5956C24.9281 13.4309 24.8977 13.3158 24.8675 13.2508Z" fill="url(#paint0_linear_110_1735)"/>
<defs>
<linearGradient id="paint0_linear_110_1735" x1="12.5" y1="0.369141" x2="12.5" y2="14.6328" gradientUnits="userSpaceOnUse">
<stop stop-color="#73A8FF"/>
<stop offset="0.365" stop-color="#6FA7FF"/>
<stop offset="1" stop-color="#3C6CEC"/>
</linearGradient>
</defs>
</svg>
