<svg width="16" height="16" viewBox="0 0 16 16" fill="none" xmlns="http://www.w3.org/2000/svg">
<path d="M10.7467 1.28566L3.486 5.00299L0.6 3.58299L7.73267 0.060992C7.81347 0.0208752 7.90246 0 7.99267 0C8.08288 0 8.17187 0.0208752 8.25267 0.060992L10.7467 1.28566ZM15.392 3.58299L8.004 7.24299L5.23733 5.87966L4.83733 5.67633L12.106 1.95966L12.506 2.16233L15.392 3.58299ZM7.412 8.29766L7.404 15.9997L0.328 12.307C0.229209 12.2545 0.14652 12.1762 0.0887549 12.0804C0.0309895 11.9846 0.000313866 11.8749 0 11.763L0 4.63766L2.99867 6.11499V8.71233C2.99867 9.04499 3.27067 9.32099 3.59867 9.32099C3.92667 9.32099 4.19867 9.04499 4.19867 8.71233V6.71566L4.59867 6.91033L7.412 8.29766ZM15.992 4.64566L8.612 8.28966L8.604 15.9917L16 12.1297L15.992 4.64566Z" fill="#335EC3"/>
</svg>
