<svg width="21" height="20" viewBox="0 0 21 20" fill="none" xmlns="http://www.w3.org/2000/svg">
<path d="M10.5023 0.181641H10.4974C5.08387 0.181641 0.681641 4.58509 0.681641 9.99982C0.681641 12.1475 1.37382 14.1382 2.55078 15.7545L1.32719 19.402L5.10105 18.1956C6.65355 19.224 8.5055 19.818 10.5023 19.818C15.9158 19.818 20.318 15.4133 20.318 9.99982C20.318 4.58632 15.9158 0.181641 10.5023 0.181641ZM16.2152 14.0461C15.9784 14.715 15.0383 15.2697 14.2884 15.4317C13.7754 15.541 13.1053 15.6281 10.8496 14.6929C7.96428 13.4976 6.10619 10.5656 5.96137 10.3754C5.82269 10.1851 4.79546 8.82287 4.79546 7.41396C4.79546 6.00505 5.51096 5.319 5.79937 5.02446C6.03623 4.78269 6.42773 4.67223 6.80328 4.67223C6.92478 4.67223 7.034 4.67837 7.13219 4.68328C7.4206 4.69555 7.56541 4.71273 7.75564 5.16805C7.9925 5.73873 8.56932 7.14764 8.63805 7.29246C8.708 7.43728 8.77796 7.63364 8.67978 7.82387C8.58773 8.02023 8.50673 8.10737 8.36191 8.27428C8.2171 8.44119 8.07964 8.56882 7.93482 8.748C7.80228 8.90387 7.65255 9.07078 7.81946 9.35919C7.98637 9.64146 8.56319 10.5828 9.41246 11.3388C10.5084 12.3145 11.397 12.6262 11.7148 12.7587C11.9517 12.8569 12.234 12.8336 12.407 12.6495C12.6267 12.4126 12.8979 12.0199 13.174 11.6333C13.3704 11.356 13.6183 11.3216 13.8785 11.4198C14.1436 11.5118 15.5464 12.2052 15.8348 12.3488C16.1232 12.4936 16.3134 12.5624 16.3834 12.6839C16.4521 12.8054 16.4521 13.376 16.2152 14.0461Z" fill="url(#paint0_linear_1_32)"/>
<defs>
<linearGradient id="paint0_linear_1_32" x1="10.4998" y1="0.181641" x2="10.4998" y2="19.818" gradientUnits="userSpaceOnUse">
<stop stop-color="#44D281"/>
<stop offset="0.365" stop-color="#4CD773"/>
<stop offset="1" stop-color="#47B77A"/>
</linearGradient>
</defs>
</svg>
