<svg width="20" height="20" viewBox="0 0 20 20" fill="none" xmlns="http://www.w3.org/2000/svg">
<path d="M10.0023 0.181824H9.99737C4.58387 0.181824 0.181641 4.58528 0.181641 10C0.181641 12.1477 0.873822 14.1384 2.05078 15.7547L0.827186 19.4021L4.60105 18.1957C6.15355 19.2242 8.0055 19.8182 10.0023 19.8182C15.4158 19.8182 19.818 15.4135 19.818 10C19.818 4.58651 15.4158 0.181824 10.0023 0.181824ZM15.7152 14.0463C15.4784 14.7152 14.5383 15.2699 13.7884 15.4319C13.2754 15.5411 12.6053 15.6283 10.3496 14.6931C7.46428 13.4977 5.60619 10.5658 5.46137 10.3756C5.32269 10.1853 4.29546 8.82305 4.29546 7.41414C4.29546 6.00523 5.01096 5.31919 5.29937 5.02464C5.53623 4.78287 5.92773 4.67241 6.30328 4.67241C6.42478 4.67241 6.534 4.67855 6.63219 4.68346C6.9206 4.69573 7.06541 4.71291 7.25564 5.16823C7.4925 5.73891 8.06932 7.14782 8.13805 7.29264C8.208 7.43746 8.27796 7.63382 8.17978 7.82405C8.08773 8.02041 8.00673 8.10755 7.86191 8.27446C7.7171 8.44137 7.57964 8.56901 7.43482 8.74819C7.30228 8.90405 7.15255 9.07096 7.31946 9.35937C7.48637 9.64164 8.06319 10.583 8.91246 11.339C10.0084 12.3146 10.897 12.6264 11.2148 12.7589C11.4517 12.8571 11.734 12.8338 11.907 12.6497C12.1267 12.4128 12.3979 12.0201 12.674 11.6335C12.8704 11.3561 13.1183 11.3218 13.3785 11.42C13.6436 11.512 15.0464 12.2054 15.3348 12.349C15.6232 12.4938 15.8134 12.5626 15.8834 12.6841C15.9521 12.8056 15.9521 13.3762 15.7152 14.0463Z" fill="white"/>
</svg>
