<svg width="19" height="16" viewBox="0 0 19 16" fill="none" xmlns="http://www.w3.org/2000/svg">
<path d="M17.4166 2.37503H13.4583V1.58334C13.4583 0.710124 12.7482 0 11.875 0H7.12499C6.25177 0 5.54164 0.710087 5.54164 1.58334V2.375H1.58334C0.710087 2.37503 1.64592e-08 3.08512 1.64592e-08 3.95834V6.33333C1.64592e-08 7.20659 0.710087 7.91668 1.58334 7.91668H7.91668V7.52083C7.91664 7.46884 7.92686 7.41735 7.94674 7.36931C7.96662 7.32127 7.99578 7.27762 8.03254 7.24085C8.0693 7.20409 8.11296 7.17493 8.161 7.15505C8.20904 7.13517 8.26053 7.12495 8.31252 7.12499H10.6875C10.7395 7.12495 10.791 7.13517 10.839 7.15505C10.8871 7.17493 10.9307 7.20409 10.9675 7.24085C11.0043 7.27762 11.0334 7.32127 11.0533 7.36931C11.0732 7.41735 11.0834 7.46884 11.0834 7.52083V7.91668H17.4167C18.2899 7.91668 19 7.20659 19 6.33333V3.95834C19 3.08512 18.2899 2.37503 17.4166 2.37503ZM11.875 2.37503H7.12499V1.58334H11.875V2.37503ZM18.7804 8.3438C18.7144 8.31109 18.6406 8.29741 18.5672 8.30431C18.4939 8.3112 18.4239 8.3384 18.3652 8.38284C18.0838 8.59585 17.756 8.70833 17.4166 8.70833H11.0833V9.89583C11.0834 9.94782 11.0731 9.99931 11.0533 10.0474C11.0334 10.0954 11.0042 10.139 10.9675 10.1758C10.9307 10.2126 10.887 10.2417 10.839 10.2616C10.791 10.2815 10.7395 10.2917 10.6875 10.2917H8.31248C8.26049 10.2917 8.209 10.2815 8.16096 10.2616C8.11292 10.2417 8.06927 10.2126 8.0325 10.1758C7.99574 10.139 7.96658 10.0954 7.9467 10.0474C7.92682 9.99931 7.9166 9.94782 7.91664 9.89583V8.70833H1.58334C1.24394 8.70833 0.916155 8.59585 0.634718 8.38284C0.576141 8.33805 0.506147 8.31064 0.432731 8.30373C0.359315 8.29683 0.285438 8.31072 0.219539 8.3438C0.153581 8.37661 0.0980868 8.42717 0.0593015 8.4898C0.0205163 8.55243 -2.12242e-05 8.62464 1.64592e-08 8.69831L1.64592e-08 14.25C1.64592e-08 15.1232 0.710087 15.8334 1.58334 15.8334H17.4167C18.2899 15.8334 19 15.1233 19 14.25V8.69831C19 8.62464 18.9795 8.55242 18.9407 8.4898C18.9019 8.42717 18.8464 8.37661 18.7804 8.3438Z" fill="url(#paint0_linear_110_26677)"/>
<defs>
<linearGradient id="paint0_linear_110_26677" x1="9.5" y1="0" x2="9.5" y2="15.8334" gradientUnits="userSpaceOnUse">
<stop stop-color="#73A8FF"/>
<stop offset="0.365" stop-color="#6FA7FF"/>
<stop offset="1" stop-color="#3C6CEC"/>
</linearGradient>
</defs>
</svg>
