<svg width="48" height="34" viewBox="0 0 48 34" fill="none" xmlns="http://www.w3.org/2000/svg">
<circle cx="24.5" cy="17.5" r="11.5" fill="white"/>
<path d="M46.7392 5.67165C46.199 3.6635 44.6157 2.08052 42.6078 1.53977C38.9397 0.536133 24.267 0.536133 24.267 0.536133C24.267 0.536133 9.59482 0.536133 5.92671 1.50176C3.95744 2.04192 2.33557 3.66387 1.79541 5.67165C0.830078 9.33947 0.830078 16.9462 0.830078 16.9462C0.830078 16.9462 0.830078 24.5911 1.79541 28.2206C2.33608 30.2284 3.91885 31.8115 5.927 32.3522C9.63342 33.3561 24.2676 33.3561 24.2676 33.3561C24.2676 33.3561 38.9397 33.3561 42.6078 32.3905C44.616 31.85 46.1991 30.267 46.7397 28.2592C47.7048 24.5911 47.7048 16.9847 47.7048 16.9847C47.7048 16.9847 47.7434 9.3394 46.7392 5.67165ZM19.5954 23.9734V9.91875L31.7966 16.946L19.5954 23.9734Z" fill="url(#paint0_linear_1_121)"/>
<defs>
<linearGradient id="paint0_linear_1_121" x1="24.2675" y1="0.536133" x2="24.2675" y2="33.3561" gradientUnits="userSpaceOnUse">
<stop stop-color="#FF7373"/>
<stop offset="0.365" stop-color="#FF6F6F"/>
<stop offset="1" stop-color="#EC3C3C"/>
</linearGradient>
</defs>
</svg>
